<svg width="32" height="32" viewBox="0 0 32 32" fill="none" xmlns="http://www.w3.org/2000/svg">
<g clip-path="url(#clip0_16_567)">
<path d="M26 0H6C2.68629 0 0 2.68629 0 6V26C0 29.3137 2.68629 32 6 32H26C29.3137 32 32 29.3137 32 26V6C32 2.68629 29.3137 0 26 0Z" fill="#FF5900"/>
<path d="M21.4471 7.19128L17.0305 12.0652C16.4682 12.6859 15.5148 12.6859 14.9526 12.0652L10.536 7.19128H6.99951L13.0295 13.8526C14.6185 15.6069 17.3483 15.6069 18.9373 13.8526L24.9673 7.19128H21.4308H21.4471Z" fill="white"/>
<path d="M10.5363 24.8087L14.961 19.9265C15.5233 19.3059 16.4767 19.3059 17.0389 19.9265L21.4637 24.8087H25.0002L18.962 18.1308C17.373 16.3765 14.6432 16.3765 13.0543 18.1308L7.01611 24.8087H10.5526H10.5363Z" fill="white"/>
</g>
<defs>
<clipPath id="clip0_16_567">
<rect width="32" height="32" fill="white"/>
</clipPath>
</defs>
</svg>
