<svg width="838" height="176" viewBox="0 0 838 176" fill="none" xmlns="http://www.w3.org/2000/svg">
<path d="M508.3 129.084V47.259C508.3 36.5862 516.82 27.8539 527.409 27.8539H633.384V1.98047H527.409C502.807 1.98047 482.902 22.1941 482.902 47.1781V129.003C482.902 153.987 502.807 174.2 527.409 174.2H633.384V148.327H527.409C516.899 148.327 508.3 139.676 508.3 128.922V129.084Z" fill="#FF7029"/>
<path d="M543.327 101.028C536.32 101.028 530.588 95.2064 530.588 88.0912C530.588 80.976 536.32 75.1545 543.327 75.1545H633.457V101.028H543.327Z" fill="#FF7029"/>
<path d="M243.323 2.06195V174.282H217.845V2.06195H243.323Z" fill="#FF7029"/>
<path d="M432.659 2.14282L375.412 144.77C372.864 151.157 363.867 151.157 361.319 144.77L304.072 2.14282H275.887L337.115 154.715C348.5 183.095 388.151 183.095 399.537 154.715L460.765 2.14282H432.579H432.659Z" fill="#FF7029"/>
<path d="M803.289 2.14282L760.135 49.7661C754.641 55.8301 745.325 55.8301 739.831 49.7661L696.677 2.14282H662.122L721.041 67.2306C736.567 84.3717 763.24 84.3717 778.766 67.2306L837.685 2.14282H803.129H803.289Z" fill="#FF7029"/>
<path d="M27.9467 174.282L85.8306 30.9268C88.3784 24.6201 97.1367 24.6201 99.6845 30.9268L157.568 174.282H185.436L123.491 20.9817C112.185 -6.99391 73.2506 -6.99391 61.9445 20.9817L0 174.282H27.8671H27.9467Z" fill="#FF7029"/>
<path d="M696.674 174.282L739.908 126.578C745.401 120.514 754.717 120.514 760.211 126.578L803.445 174.282H838L779.001 109.032C763.475 91.8913 736.802 91.8913 721.276 109.032L662.278 174.282H696.833H696.674Z" fill="#FF7029"/>
</svg>
