<svg width="1922" height="176" viewBox="0 0 1922 176" fill="none" xmlns="http://www.w3.org/2000/svg">
<path d="M508.3 129.084V47.259C508.3 36.5863 516.82 27.854 527.409 27.854H633.384V1.9805H527.409C502.807 1.9805 482.902 22.1941 482.902 47.1782V129.003C482.902 153.987 502.807 174.2 527.409 174.2H633.384V148.327H527.409C516.899 148.327 508.3 139.676 508.3 128.922V129.084Z" fill="white"/>
<path d="M543.326 101.028C536.32 101.028 530.587 95.2065 530.587 88.0913C530.587 80.9761 536.32 75.1546 543.326 75.1546H633.456V101.028H543.326Z" fill="white"/>
<path d="M243.323 2.06194V174.282H217.845V2.06194H243.323Z" fill="white"/>
<path d="M432.659 2.14279L375.412 144.77C372.864 151.158 363.867 151.158 361.319 144.77L304.073 2.14279H275.887L337.115 154.715C348.501 183.095 388.151 183.095 399.537 154.715L460.765 2.14279H432.58H432.659Z" fill="white"/>
<path d="M803.288 2.14279L760.134 49.7661C754.641 55.8301 745.325 55.8301 739.831 49.7661L696.677 2.14279H662.122L721.041 67.2306C736.567 84.3717 763.239 84.3717 778.765 67.2306L837.684 2.14279H803.129H803.288Z" fill="white"/>
<path d="M27.9467 174.282L85.8306 30.9268C88.3784 24.6201 97.1367 24.6201 99.6845 30.9268L157.568 174.282H185.436L123.491 20.9817C112.185 -6.99391 73.2506 -6.99391 61.9445 20.9817L0 174.282H27.8671H27.9467Z" fill="white"/>
<path d="M696.674 174.282L739.908 126.578C745.402 120.514 754.717 120.514 760.211 126.578L803.445 174.282H838L779.001 109.032C763.475 91.8913 736.803 91.8913 721.277 109.032L662.278 174.282H696.833H696.674Z" fill="white"/>
<path d="M1006.13 56.8978C1003.6 55.789 1001.64 54.2051 1000.16 52.1987C998.739 50.1924 998 47.8164 998 45.1237H1006.24C1006.4 47.1301 1007.24 48.8196 1008.67 50.1396C1010.09 51.4595 1012.1 52.0931 1014.63 52.0931C1017.17 52.0931 1019.38 51.4595 1020.86 50.1924C1022.34 48.9252 1023.08 47.2357 1023.08 45.2293C1023.08 43.6454 1022.6 42.3782 1021.71 41.375C1020.81 40.3719 1019.65 39.6327 1018.27 39.0519C1016.9 38.5239 1015 37.9431 1012.57 37.3095C1009.51 36.5176 1007.03 35.6728 1005.13 34.828C1003.23 33.9832 1001.59 32.7161 1000.22 30.9209C998.792 29.1786 998.159 26.8026 998.159 23.8987C998.159 21.206 998.845 18.8301 1000.16 16.8237C1001.54 14.8174 1003.39 13.2334 1005.87 12.1775C1008.3 11.0687 1011.09 10.5407 1014.31 10.5407C1018.86 10.5407 1022.6 11.7023 1025.51 13.9726C1028.41 16.2429 1030.05 19.3581 1030.37 23.3179H1021.87C1021.71 21.6284 1020.91 20.15 1019.44 18.9357C1017.96 17.7213 1016 17.0877 1013.58 17.0877C1011.36 17.0877 1009.56 17.6685 1008.19 18.7773C1006.82 19.886 1006.08 21.5228 1006.08 23.6347C1006.08 25.0603 1006.5 26.2747 1007.4 27.1722C1008.3 28.0698 1009.4 28.809 1010.72 29.3898C1012.1 29.9178 1013.95 30.4985 1016.27 31.1321C1019.38 31.9769 1021.92 32.8217 1023.87 33.7192C1025.83 34.564 1027.51 35.884 1028.89 37.6791C1030.26 39.4743 1030.95 41.8502 1030.95 44.8069C1030.95 47.1829 1030.31 49.4532 1028.99 51.5651C1027.73 53.6771 1025.83 55.3666 1023.4 56.6866C1020.97 58.0065 1018.06 58.6401 1014.74 58.6401C1011.57 58.6401 1008.72 58.1121 1006.24 57.0034L1006.13 56.8978Z" fill="white"/>
<path d="M1071.49 42.3253H1043.03C1043.25 45.282 1044.35 47.7107 1046.36 49.5059C1048.37 51.301 1050.8 52.1986 1053.65 52.1986C1057.76 52.1986 1060.72 50.4563 1062.41 46.9716H1070.7C1069.59 50.4035 1067.53 53.2018 1064.58 55.3665C1061.62 57.5313 1057.98 58.64 1053.59 58.64C1050.06 58.64 1046.84 57.848 1044.04 56.2641C1041.24 54.6801 1039.02 52.4098 1037.44 49.5059C1035.85 46.602 1035.06 43.2229 1035.06 39.4214C1035.06 35.6199 1035.85 32.2408 1037.38 29.3369C1038.92 26.4329 1041.13 24.2154 1043.93 22.6315C1046.73 21.0475 1050 20.2555 1053.65 20.2555C1057.29 20.2555 1060.3 21.0475 1063.04 22.5787C1065.79 24.1098 1067.95 26.2745 1069.49 29.0201C1071.02 31.7656 1071.76 34.9863 1071.76 38.5766C1071.76 39.9494 1071.65 41.2165 1071.49 42.3781V42.3253ZM1063.68 36.1479C1063.68 33.2967 1062.62 31.0264 1060.62 29.3369C1058.61 27.6473 1056.18 26.7497 1053.22 26.7497C1050.58 26.7497 1048.31 27.5945 1046.41 29.2841C1044.51 30.9736 1043.4 33.2439 1043.03 36.1479H1063.63H1063.68Z" fill="white"/>
<path d="M1077.46 29.39C1078.99 26.486 1081.16 24.2685 1083.8 22.6846C1086.49 21.1006 1089.44 20.3086 1092.67 20.3086C1095.57 20.3086 1098.16 20.8894 1100.32 22.051C1102.49 23.2125 1104.23 24.6381 1105.55 26.3277V20.9422H1113.31V58.1651H1105.55V52.6213C1104.23 54.3636 1102.49 55.842 1100.22 57.0036C1097.95 58.1651 1095.41 58.7459 1092.51 58.7459C1089.29 58.7459 1086.38 57.9011 1083.74 56.2644C1081.1 54.6276 1078.99 52.3045 1077.41 49.3478C1075.88 46.3911 1075.08 43.0648 1075.08 39.3161C1075.08 35.5674 1075.88 32.2411 1077.41 29.39H1077.46ZM1104.02 32.7691C1102.96 30.8683 1101.59 29.4428 1099.85 28.4396C1098.16 27.4364 1096.31 26.9612 1094.3 26.9612C1092.3 26.9612 1090.45 27.4364 1088.76 28.3868C1087.07 29.3372 1085.64 30.7627 1084.59 32.6635C1083.53 34.5114 1083 36.729 1083 39.3161C1083 41.9032 1083.53 44.1207 1084.59 46.0743C1085.64 48.0278 1087.02 49.5062 1088.76 50.5094C1090.5 51.5125 1092.35 52.0405 1094.25 52.0405C1096.15 52.0405 1098.05 51.5653 1099.79 50.5622C1101.48 49.559 1102.91 48.1334 1103.96 46.1799C1105.02 44.2791 1105.55 42.0088 1105.55 39.4745C1105.55 36.9401 1105.02 34.6698 1103.96 32.7691H1104.02Z" fill="white"/>
<path d="M1174.24 22.0507C1176.57 23.265 1178.42 25.0602 1179.74 27.4361C1181.06 29.8121 1181.74 32.716 1181.74 36.0951V58.0592H1174.09V37.2566C1174.09 33.9303 1173.24 31.3432 1171.6 29.6009C1169.91 27.8057 1167.64 26.9081 1164.79 26.9081C1161.94 26.9081 1159.62 27.8057 1157.93 29.6009C1156.24 31.396 1155.4 33.9303 1155.4 37.2566V58.0592H1147.74V37.2566C1147.74 33.9303 1146.89 31.3432 1145.26 29.6009C1143.57 27.8057 1141.3 26.9081 1138.45 26.9081C1135.6 26.9081 1133.27 27.8057 1131.58 29.6009C1129.89 31.396 1129.05 33.9303 1129.05 37.2566V58.0592H1121.34V20.8363H1129.05V25.113C1130.32 23.5818 1131.9 22.3675 1133.85 21.5227C1135.81 20.6779 1137.87 20.2555 1140.08 20.2555C1143.04 20.2555 1145.73 20.8891 1148.06 22.1563C1150.38 23.4234 1152.17 25.2186 1153.44 27.6473C1154.55 25.377 1156.35 23.5818 1158.72 22.2619C1161.1 20.9419 1163.68 20.2555 1166.43 20.2555C1169.33 20.2555 1171.97 20.8891 1174.3 22.1035L1174.24 22.0507Z" fill="white"/>
<path d="M1197.05 8.05969V58.0599H1189.34V8.05969H1197.05Z" fill="white"/>
<path d="M1239.23 42.3253H1210.78C1210.99 45.282 1212.1 47.7107 1214.1 49.5059C1216.11 51.301 1218.54 52.1986 1221.39 52.1986C1225.51 52.1986 1228.46 50.4563 1230.15 46.9716H1238.44C1237.33 50.4035 1235.28 53.2018 1232.32 55.3665C1229.36 57.5313 1225.72 58.64 1221.34 58.64C1217.8 58.64 1214.58 57.848 1211.78 56.2641C1208.98 54.6801 1206.76 52.4098 1205.18 49.5059C1203.6 46.602 1202.8 43.2229 1202.8 39.4214C1202.8 35.6199 1203.6 32.2408 1205.13 29.3369C1206.66 26.4329 1208.88 24.2154 1211.67 22.6315C1214.47 21.0475 1217.75 20.2555 1221.39 20.2555C1225.03 20.2555 1228.04 21.0475 1230.79 22.5787C1233.53 24.1098 1235.7 26.2745 1237.23 29.0201C1238.76 31.7656 1239.5 34.9863 1239.5 38.5766C1239.5 39.9494 1239.39 41.2165 1239.23 42.3781V42.3253ZM1231.42 36.1479C1231.42 33.2967 1230.36 31.0264 1228.36 29.3369C1226.35 27.6473 1223.92 26.7497 1220.97 26.7497C1218.33 26.7497 1216.06 27.5945 1214.16 29.2841C1212.25 30.9736 1211.15 33.2439 1210.78 36.1479H1231.37H1231.42Z" fill="white"/>
<path d="M1250.48 57.1088C1248.16 56.0528 1246.31 54.6273 1244.99 52.7793C1243.67 50.9314 1242.93 48.9251 1242.83 46.6547H1250.8C1250.96 48.2387 1251.7 49.5586 1253.07 50.6146C1254.44 51.6706 1256.19 52.1986 1258.25 52.1986C1260.3 52.1986 1262.1 51.7762 1263.26 50.9314C1264.48 50.0866 1265.06 49.0307 1265.06 47.7107C1265.06 46.3379 1264.37 45.282 1263.05 44.5956C1261.73 43.9092 1259.62 43.17 1256.71 42.378C1253.92 41.5861 1251.65 40.8469 1249.9 40.1605C1248.16 39.4213 1246.63 38.3126 1245.36 36.8342C1244.1 35.3558 1243.46 33.4023 1243.46 30.9736C1243.46 28.9672 1244.04 27.1721 1245.2 25.5353C1246.37 23.8986 1248.06 22.5786 1250.22 21.6282C1252.39 20.6779 1254.92 20.2027 1257.77 20.2027C1261.99 20.2027 1265.43 21.2587 1268.01 23.4234C1270.6 25.5881 1271.97 28.492 1272.18 32.1879H1264.48C1264.32 30.4984 1263.68 29.1784 1262.47 28.1753C1261.26 27.1721 1259.62 26.6969 1257.56 26.6969C1255.5 26.6969 1253.97 27.0665 1252.91 27.8585C1251.8 28.6504 1251.28 29.6536 1251.28 30.9208C1251.28 31.9239 1251.65 32.7687 1252.39 33.4023C1253.12 34.0887 1253.97 34.6167 1255.03 34.9863C1256.08 35.3558 1257.61 35.831 1259.62 36.4646C1262.31 37.2038 1264.53 37.943 1266.27 38.6821C1268.01 39.4213 1269.49 40.5301 1270.76 41.9557C1272.03 43.3812 1272.66 45.3348 1272.71 47.7107C1272.71 49.8226 1272.13 51.7234 1270.97 53.4129C1269.81 55.1025 1268.12 56.3696 1266.01 57.32C1263.9 58.2704 1261.36 58.7456 1258.46 58.7456C1255.55 58.7456 1252.91 58.2176 1250.59 57.1616L1250.48 57.1088Z" fill="white"/>
<path d="M1284.33 57.1088C1282.01 56.0528 1280.16 54.6273 1278.84 52.7793C1277.52 50.9314 1276.78 48.9251 1276.67 46.6547H1284.65C1284.8 48.2387 1285.54 49.5586 1286.92 50.6146C1288.29 51.6706 1290.03 52.1986 1292.09 52.1986C1294.15 52.1986 1295.95 51.7762 1297.11 50.9314C1298.32 50.0866 1298.9 49.0307 1298.9 47.7107C1298.9 46.3379 1298.22 45.282 1296.9 44.5956C1295.58 43.9092 1293.46 43.17 1290.56 42.378C1287.76 41.5861 1285.49 40.8469 1283.75 40.1605C1282.01 39.4213 1280.48 38.3126 1279.21 36.8342C1277.94 35.3558 1277.31 33.4023 1277.31 30.9736C1277.31 28.9672 1277.89 27.1721 1279.05 25.5353C1280.21 23.8986 1281.9 22.5786 1284.07 21.6282C1286.23 20.6779 1288.76 20.2027 1291.62 20.2027C1295.84 20.2027 1299.27 21.2587 1301.86 23.4234C1304.45 25.5881 1305.82 28.492 1306.03 32.1879H1298.32C1298.16 30.4984 1297.53 29.1784 1296.31 28.1753C1295.1 27.1721 1293.46 26.6969 1291.4 26.6969C1289.35 26.6969 1287.81 27.0665 1286.76 27.8585C1285.65 28.6504 1285.12 29.6536 1285.12 30.9208C1285.12 31.9239 1285.49 32.7687 1286.23 33.4023C1286.97 34.0887 1287.81 34.6167 1288.87 34.9863C1289.93 35.3558 1291.46 35.831 1293.46 36.4646C1296.16 37.2038 1298.37 37.943 1300.12 38.6821C1301.86 39.4213 1303.34 40.5301 1304.6 41.9557C1305.87 43.3812 1306.5 45.3348 1306.56 47.7107C1306.56 49.8226 1305.98 51.7234 1304.82 53.4129C1303.65 55.1025 1301.96 56.3696 1299.85 57.32C1297.74 58.2704 1295.21 58.7456 1292.3 58.7456C1289.4 58.7456 1286.76 58.2176 1284.43 57.1616L1284.33 57.1088Z" fill="white"/>
<path d="M1336.65 11.1212V58.1119H1328.94V11.1212H1336.65Z" fill="white"/>
<path d="M1371.6 22.0507C1373.93 23.265 1375.72 25.0602 1377.04 27.4361C1378.36 29.8121 1379 32.716 1379 36.0951V58.0592H1371.34V37.2566C1371.34 33.9303 1370.49 31.3432 1368.86 29.6009C1367.17 27.8057 1364.9 26.9081 1362.05 26.9081C1359.2 26.9081 1356.87 27.8057 1355.18 29.6009C1353.49 31.396 1352.65 33.9303 1352.65 37.2566V58.0592H1344.94V20.8363H1352.65V25.113C1353.92 23.5818 1355.5 22.3675 1357.51 21.5227C1359.46 20.6779 1361.57 20.2555 1363.74 20.2555C1366.64 20.2555 1369.28 20.8891 1371.6 22.1035V22.0507Z" fill="white"/>
<path d="M1386.6 29.3903C1388.13 26.4864 1390.29 24.2688 1392.93 22.6849C1395.63 21.1009 1398.58 20.3089 1401.91 20.3089C1404.34 20.3089 1406.77 20.8369 1409.09 21.8929C1411.47 22.9489 1413.31 24.3744 1414.74 26.1168V8.05969H1422.5V58.0599H1414.74V52.4632C1413.47 54.2584 1411.73 55.7367 1409.51 56.8983C1407.29 58.0599 1404.71 58.6406 1401.86 58.6406C1398.64 58.6406 1395.63 57.7959 1392.99 56.1591C1390.35 54.5224 1388.18 52.1992 1386.65 49.2425C1385.12 46.2858 1384.33 42.9595 1384.33 39.2108C1384.33 35.4621 1385.12 32.1358 1386.65 29.2847L1386.6 29.3903ZM1413.16 32.7694C1412.1 30.8686 1410.73 29.4431 1408.98 28.4399C1407.29 27.4367 1405.45 26.9615 1403.44 26.9615C1401.43 26.9615 1399.59 27.4367 1397.9 28.3871C1396.21 29.3375 1394.78 30.763 1393.73 32.6638C1392.67 34.5117 1392.14 36.7293 1392.14 39.3164C1392.14 41.9035 1392.67 44.1211 1393.73 46.0746C1394.78 48.0281 1396.15 49.5065 1397.9 50.5097C1399.64 51.5128 1401.49 52.0408 1403.39 52.0408C1405.29 52.0408 1407.19 51.5656 1408.93 50.5625C1410.62 49.5593 1412.05 48.1337 1413.1 46.1802C1414.16 44.2795 1414.69 42.0091 1414.69 39.4748C1414.69 36.9405 1414.16 34.6701 1413.1 32.7694H1413.16Z" fill="white"/>
<path d="M1464.16 20.8368V58.0597H1456.45V53.6774C1455.24 55.2086 1453.65 56.423 1451.7 57.3205C1449.75 58.2181 1447.63 58.6405 1445.47 58.6405C1442.56 58.6405 1439.92 58.0069 1437.6 56.7926C1435.28 55.5782 1433.43 53.783 1432.11 51.4071C1430.79 49.0312 1430.1 46.1273 1430.1 42.7482V20.8368H1437.76V41.5866C1437.76 44.9129 1438.6 47.5 1440.24 49.2424C1441.93 51.0375 1444.2 51.9351 1447.05 51.9351C1449.9 51.9351 1452.23 51.0375 1453.92 49.2424C1455.61 47.4472 1456.45 44.9129 1456.45 41.5866V20.8368H1464.16Z" fill="white"/>
<path d="M1477.73 57.1088C1475.4 56.0528 1473.56 54.6273 1472.24 52.7793C1470.92 50.9314 1470.18 48.9251 1470.07 46.6547H1478.04C1478.2 48.2387 1478.94 49.5586 1480.31 50.6146C1481.69 51.6706 1483.43 52.1986 1485.49 52.1986C1487.55 52.1986 1489.34 51.7762 1490.5 50.9314C1491.72 50.0866 1492.3 49.0307 1492.3 47.7107C1492.3 46.3379 1491.61 45.282 1490.29 44.5956C1488.97 43.9092 1486.86 43.17 1483.96 42.378C1481.16 41.5861 1478.89 40.8469 1477.15 40.1605C1475.4 39.4213 1473.87 38.3126 1472.61 36.8342C1471.34 35.3558 1470.71 33.4023 1470.71 30.9736C1470.71 28.9672 1471.29 27.1721 1472.45 25.5353C1473.61 23.8986 1475.3 22.5786 1477.46 21.6282C1479.63 20.6779 1482.16 20.2027 1485.01 20.2027C1489.24 20.2027 1492.67 21.2587 1495.26 23.4234C1497.84 25.5881 1499.22 28.492 1499.43 32.1879H1491.72C1491.56 30.4984 1490.93 29.1784 1489.71 28.1753C1488.5 27.1721 1486.86 26.6969 1484.8 26.6969C1482.74 26.6969 1481.21 27.0665 1480.16 27.8585C1479.05 28.6504 1478.52 29.6536 1478.52 30.9208C1478.52 31.9239 1478.89 32.7687 1479.63 33.4023C1480.37 34.0887 1481.21 34.6167 1482.27 34.9863C1483.32 35.3558 1484.86 35.831 1486.86 36.4646C1489.55 37.2038 1491.77 37.943 1493.51 38.6821C1495.26 39.4213 1496.73 40.5301 1498 41.9557C1499.27 43.3812 1499.9 45.3348 1499.96 47.7107C1499.96 49.8226 1499.37 51.7234 1498.21 53.4129C1497.05 55.1025 1495.36 56.3696 1493.25 57.32C1491.14 58.2704 1488.6 58.7456 1485.7 58.7456C1482.8 58.7456 1480.16 58.2176 1477.83 57.1616L1477.73 57.1088Z" fill="white"/>
<path d="M1514.9 27.1203V47.7117C1514.9 49.0845 1515.22 50.0876 1515.9 50.7212C1516.54 51.3548 1517.65 51.6188 1519.23 51.6188H1523.98V58.0602H1517.91C1514.43 58.0602 1511.79 57.2682 1509.94 55.6315C1508.09 53.9947 1507.19 51.3548 1507.19 47.7117V27.1203H1502.81V20.8373H1507.19V11.5975H1514.95V20.8373H1524.04V27.1203H1514.95H1514.9Z" fill="white"/>
<path d="M1540.98 21.8395C1542.83 20.7835 1545.05 20.2555 1547.63 20.2555V28.2281H1545.68C1542.67 28.2281 1540.4 29.0201 1538.82 30.5512C1537.29 32.0824 1536.49 34.7223 1536.49 38.5238V58.112H1528.79V20.8363H1536.49V26.2218C1537.6 24.321 1539.13 22.8426 1540.98 21.7867V21.8395Z" fill="white"/>
<path d="M1552.49 14.5007C1551.54 13.5503 1551.06 12.3888 1551.06 10.9632C1551.06 9.53764 1551.54 8.37607 1552.49 7.4257C1553.44 6.47532 1554.6 6.00014 1556.03 6.00014C1557.45 6.00014 1558.51 6.47532 1559.46 7.4257C1560.41 8.37607 1560.89 9.53764 1560.89 10.9632C1560.89 12.3888 1560.41 13.5503 1559.46 14.5007C1558.51 15.4511 1557.35 15.9263 1556.03 15.9263C1554.71 15.9263 1553.44 15.4511 1552.49 14.5007ZM1559.78 20.8365V58.0594H1552.07V20.8365H1559.78Z" fill="white"/>
<path d="M1567.65 29.39C1569.18 26.486 1571.35 24.2685 1573.99 22.6846C1576.68 21.1006 1579.64 20.3086 1582.86 20.3086C1585.76 20.3086 1588.35 20.8894 1590.51 22.051C1592.68 23.2125 1594.42 24.6381 1595.74 26.3277V20.9422H1603.5V58.1651H1595.74V52.6213C1594.42 54.3636 1592.68 55.842 1590.41 57.0036C1588.14 58.1651 1585.6 58.7459 1582.7 58.7459C1579.48 58.7459 1576.57 57.9011 1573.93 56.2644C1571.29 54.6276 1569.18 52.3045 1567.6 49.3478C1566.07 46.3911 1565.27 43.0648 1565.27 39.3161C1565.27 35.5674 1566.07 32.2411 1567.6 29.39H1567.65ZM1594.21 32.7691C1593.15 30.8683 1591.78 29.4428 1590.04 28.4396C1588.35 27.4364 1586.5 26.9612 1584.49 26.9612C1582.49 26.9612 1580.64 27.4364 1578.95 28.3868C1577.26 29.3372 1575.83 30.7627 1574.78 32.6635C1573.72 34.5114 1573.19 36.729 1573.19 39.3161C1573.19 41.9032 1573.72 44.1207 1574.78 46.0743C1575.83 48.0278 1577.21 49.5062 1578.95 50.5094C1580.69 51.5125 1582.54 52.0405 1584.44 52.0405C1586.34 52.0405 1588.24 51.5653 1589.98 50.5622C1591.67 49.559 1593.1 48.1334 1594.15 46.1799C1595.21 44.2791 1595.74 42.0088 1595.74 39.4745C1595.74 36.9401 1595.21 34.6698 1594.15 32.7691H1594.21Z" fill="white"/>
<path d="M1619.12 8.05969V58.0599H1611.41V8.05969H1619.12Z" fill="white"/>
<path d="M1671.82 48.5025H1652.18L1648.8 58.1118H1640.77L1657.61 11.0684H1666.54L1683.38 58.1118H1675.25L1671.87 48.5025H1671.82ZM1669.65 42.2195L1662 20.4137L1654.29 42.2195H1669.65Z" fill="white"/>
<path d="M1695.42 11.1212V58.1119H1687.71V11.1212H1695.42Z" fill="white"/>
<path d="M1760.26 11.1212L1742.62 58.1119H1733.7L1716.01 11.1212H1724.25L1738.19 50.1921L1752.18 11.1212H1760.31H1760.26Z" fill="white"/>
<path d="M1765.16 14.5007C1764.21 13.5503 1763.74 12.3888 1763.74 10.9632C1763.74 9.53764 1764.21 8.37607 1765.16 7.4257C1766.11 6.47532 1767.28 6.00014 1768.7 6.00014C1770.13 6.00014 1771.18 6.47532 1772.13 7.4257C1773.08 8.37607 1773.56 9.53764 1773.56 10.9632C1773.56 12.3888 1773.08 13.5503 1772.13 14.5007C1771.18 15.4511 1770.02 15.9263 1768.7 15.9263C1767.38 15.9263 1766.11 15.4511 1765.16 14.5007ZM1772.45 20.8365V58.0594H1764.74V20.8365H1772.45Z" fill="white"/>
<path d="M1785.92 57.1088C1783.59 56.0528 1781.74 54.6273 1780.42 52.7793C1779.1 50.9314 1778.37 48.9251 1778.26 46.6547H1786.23C1786.39 48.2387 1787.13 49.5586 1788.5 50.6146C1789.88 51.6706 1791.62 52.1986 1793.68 52.1986C1795.74 52.1986 1797.53 51.7762 1798.69 50.9314C1799.91 50.0866 1800.49 49.0307 1800.49 47.7107C1800.49 46.3379 1799.8 45.282 1798.48 44.5956C1797.16 43.9092 1795.05 43.17 1792.15 42.378C1789.35 41.5861 1787.08 40.8469 1785.33 40.1605C1783.59 39.4213 1782.06 38.3126 1780.79 36.8342C1779.53 35.3558 1778.89 33.4023 1778.89 30.9736C1778.89 28.9672 1779.47 27.1721 1780.64 25.5353C1781.8 23.8986 1783.49 22.5786 1785.65 21.6282C1787.82 20.6779 1790.35 20.2027 1793.2 20.2027C1797.43 20.2027 1800.86 21.2587 1803.44 23.4234C1806.03 25.5881 1807.4 28.492 1807.62 32.1879H1799.91C1799.75 30.4984 1799.11 29.1784 1797.9 28.1753C1796.69 27.1721 1795.05 26.6969 1792.99 26.6969C1790.93 26.6969 1789.4 27.0665 1788.34 27.8585C1787.24 28.6504 1786.71 29.6536 1786.71 30.9208C1786.71 31.9239 1787.08 32.7687 1787.82 33.4023C1788.56 34.0887 1789.4 34.6167 1790.46 34.9863C1791.51 35.3558 1793.04 35.831 1795.05 36.4646C1797.74 37.2038 1799.96 37.943 1801.7 38.6821C1803.44 39.4213 1804.92 40.5301 1806.19 41.9557C1807.46 43.3812 1808.09 45.3348 1808.14 47.7107C1808.14 49.8226 1807.56 51.7234 1806.4 53.4129C1805.24 55.1025 1803.55 56.3696 1801.44 57.32C1799.33 58.2704 1796.79 58.7456 1793.89 58.7456C1790.98 58.7456 1788.34 58.2176 1786.02 57.1616L1785.92 57.1088Z" fill="white"/>
<path d="M1814.48 14.5007C1813.53 13.5503 1813.05 12.3888 1813.05 10.9632C1813.05 9.53764 1813.53 8.37607 1814.48 7.4257C1815.43 6.47532 1816.59 6.00014 1818.02 6.00014C1819.44 6.00014 1820.5 6.47532 1821.45 7.4257C1822.4 8.37607 1822.87 9.53764 1822.87 10.9632C1822.87 12.3888 1822.4 13.5503 1821.45 14.5007C1820.5 15.4511 1819.34 15.9263 1818.02 15.9263C1816.7 15.9263 1815.43 15.4511 1814.48 14.5007ZM1821.76 20.8365V58.0594H1814.06V20.8365H1821.76Z" fill="white"/>
<path d="M1836.44 56.3169C1833.59 54.7329 1831.37 52.4626 1829.74 49.5587C1828.1 46.6548 1827.31 43.2757 1827.31 39.4742C1827.31 35.6727 1828.15 32.3464 1829.79 29.3897C1831.43 26.4329 1833.75 24.2154 1836.6 22.6315C1839.45 21.0475 1842.73 20.2555 1846.26 20.2555C1849.8 20.2555 1853.02 21.0475 1855.93 22.6315C1858.83 24.2154 1861.1 26.4857 1862.74 29.3897C1864.43 32.2936 1865.22 35.6727 1865.22 39.4742C1865.22 43.2757 1864.37 46.602 1862.63 49.5587C1860.89 52.5154 1858.57 54.7329 1855.66 56.3697C1852.7 57.9536 1849.43 58.7456 1845.89 58.7456C1842.36 58.7456 1839.19 57.9536 1836.39 56.3697L1836.44 56.3169ZM1851.54 50.6146C1853.29 49.6643 1854.71 48.2387 1855.77 46.338C1856.88 44.4372 1857.4 42.1669 1857.4 39.4214C1857.4 36.6759 1856.88 34.4055 1855.87 32.5576C1854.82 30.7096 1853.44 29.2841 1851.75 28.3337C1850.06 27.3833 1848.22 26.9081 1846.21 26.9081C1844.2 26.9081 1842.41 27.3833 1840.72 28.3337C1839.03 29.2841 1837.71 30.7096 1836.71 32.5576C1835.7 34.4055 1835.23 36.7287 1835.23 39.4214C1835.23 43.4341 1836.23 46.5492 1838.29 48.7139C1840.35 50.8786 1842.94 51.9874 1846.05 51.9874C1848.06 51.9874 1849.91 51.5122 1851.65 50.5619L1851.54 50.6146Z" fill="white"/>
<path d="M1897.58 22.0507C1899.91 23.265 1901.7 25.0602 1903.02 27.4361C1904.34 29.8121 1904.97 32.716 1904.97 36.0951V58.0592H1897.32V37.2566C1897.32 33.9303 1896.47 31.3432 1894.84 29.6009C1893.15 27.8057 1890.88 26.9081 1888.03 26.9081C1885.17 26.9081 1882.85 27.8057 1881.16 29.6009C1879.47 31.396 1878.63 33.9303 1878.63 37.2566V58.0592H1870.92V20.8363H1878.63V25.113C1879.89 23.5818 1881.48 22.3675 1883.49 21.5227C1885.44 20.6779 1887.55 20.2555 1889.72 20.2555C1892.62 20.2555 1895.26 20.8891 1897.58 22.1035V22.0507Z" fill="white"/>
<path d="M1921.71 48.8195L1913.53 67.4573H1908.51L1913.32 48.8195H1921.71Z" fill="white"/>
<path d="M1029.05 143.063H1009.4L1006.03 152.673H998L1014.84 105.629H1023.77L1040.61 152.673H1032.48L1029.1 143.063H1029.05ZM1026.88 136.78L1019.23 114.975L1011.52 136.78H1026.88Z" fill="white"/>
<path d="M1077.83 115.397V152.62H1070.12V148.237C1068.91 149.769 1067.32 150.983 1065.37 151.88C1063.41 152.778 1061.3 153.2 1059.14 153.2C1056.23 153.2 1053.59 152.567 1051.27 151.352C1048.95 150.138 1047.1 148.343 1045.78 145.967C1044.46 143.591 1043.77 140.687 1043.77 137.308V115.397H1051.43V136.147C1051.43 139.473 1052.27 142.06 1053.91 143.802C1055.6 145.597 1057.87 146.495 1060.72 146.495C1063.57 146.495 1065.9 145.597 1067.59 143.802C1069.27 142.007 1070.12 139.473 1070.12 136.147V115.397H1077.83Z" fill="white"/>
<path d="M1094.62 121.679V142.271C1094.62 143.643 1094.94 144.647 1095.63 145.28C1096.26 145.914 1097.37 146.178 1098.95 146.178H1103.7V152.619H1097.63C1094.15 152.619 1091.51 151.827 1089.66 150.19C1087.81 148.554 1086.91 145.914 1086.91 142.271V121.679H1082.53V115.396H1086.91V106.156H1094.67V115.396H1103.76V121.679H1094.67H1094.62Z" fill="white"/>
<path d="M1114.47 150.877C1111.62 149.293 1109.4 147.023 1107.77 144.119C1106.13 141.215 1105.34 137.836 1105.34 134.034C1105.34 130.233 1106.18 126.907 1107.82 123.95C1109.46 120.993 1111.78 118.776 1114.63 117.192C1117.48 115.608 1120.76 114.816 1124.29 114.816C1127.83 114.816 1131.05 115.608 1133.96 117.192C1136.86 118.776 1139.13 121.046 1140.77 123.95C1142.46 126.854 1143.25 130.233 1143.25 134.034C1143.25 137.836 1142.4 141.162 1140.66 144.119C1138.92 147.076 1136.6 149.293 1133.69 150.93C1130.73 152.514 1127.46 153.306 1123.92 153.306C1120.39 153.306 1117.22 152.514 1114.42 150.93L1114.47 150.877ZM1129.57 145.175C1131.32 144.224 1132.74 142.799 1133.8 140.898C1134.91 138.997 1135.43 136.727 1135.43 133.982C1135.43 131.236 1134.91 128.966 1133.9 127.118C1132.85 125.27 1131.47 123.844 1129.78 122.894C1128.09 121.943 1126.25 121.468 1124.24 121.468C1122.23 121.468 1120.44 121.943 1118.75 122.894C1117.06 123.844 1115.74 125.27 1114.74 127.118C1113.73 128.966 1113.26 131.289 1113.26 133.982C1113.26 137.994 1114.26 141.109 1116.32 143.274C1118.38 145.439 1120.97 146.548 1124.08 146.548C1126.09 146.548 1127.94 146.072 1129.68 145.122L1129.57 145.175Z" fill="white"/>
<path d="M1175.61 116.611C1177.93 117.825 1179.73 119.62 1181.05 121.996C1182.37 124.372 1183 127.276 1183 130.655V152.619H1175.35V131.817C1175.35 128.49 1174.5 125.903 1172.86 124.161C1171.17 122.366 1168.9 121.468 1166.05 121.468C1163.2 121.468 1160.88 122.366 1159.19 124.161C1157.5 125.956 1156.66 128.49 1156.66 131.817V152.619H1148.95V115.396H1156.66V119.673C1157.92 118.142 1159.51 116.928 1161.51 116.083C1163.47 115.238 1165.58 114.816 1167.74 114.816C1170.65 114.816 1173.29 115.449 1175.61 116.664V116.611Z" fill="white"/>
<path d="M1197.42 150.877C1194.57 149.293 1192.35 147.023 1190.71 144.119C1189.08 141.215 1188.28 137.836 1188.28 134.034C1188.28 130.233 1189.13 126.907 1190.76 123.95C1192.4 120.993 1194.72 118.776 1197.58 117.192C1200.43 115.608 1203.7 114.816 1207.24 114.816C1210.78 114.816 1214 115.608 1216.9 117.192C1219.8 118.776 1222.07 121.046 1223.71 123.95C1225.4 126.854 1226.19 130.233 1226.19 134.034C1226.19 137.836 1225.35 141.162 1223.61 144.119C1221.86 147.076 1219.54 149.293 1216.64 150.93C1213.68 152.514 1210.41 153.306 1206.87 153.306C1203.33 153.306 1200.16 152.514 1197.36 150.93L1197.42 150.877ZM1212.52 145.175C1214.26 144.224 1215.69 142.799 1216.74 140.898C1217.85 138.997 1218.38 136.727 1218.38 133.982C1218.38 131.236 1217.85 128.966 1216.85 127.118C1215.79 125.27 1214.42 123.844 1212.73 122.894C1211.04 121.943 1209.19 121.468 1207.19 121.468C1205.18 121.468 1203.38 121.943 1201.69 122.894C1200 123.844 1198.68 125.27 1197.68 127.118C1196.68 128.966 1196.2 131.289 1196.2 133.982C1196.2 137.994 1197.21 141.109 1199.27 143.274C1201.32 145.439 1203.91 146.548 1207.03 146.548C1209.03 146.548 1210.88 146.072 1212.62 145.122L1212.52 145.175Z" fill="white"/>
<path d="M1284.91 116.611C1287.23 117.825 1289.08 119.62 1290.4 121.996C1291.72 124.372 1292.4 127.276 1292.4 130.655V152.619H1284.75V131.817C1284.75 128.49 1283.9 125.903 1282.27 124.161C1280.58 122.366 1278.31 121.468 1275.46 121.468C1272.61 121.468 1270.28 122.366 1268.59 124.161C1266.9 125.956 1266.06 128.49 1266.06 131.817V152.619H1258.4V131.817C1258.4 128.49 1257.56 125.903 1255.92 124.161C1254.23 122.366 1251.96 121.468 1249.11 121.468C1246.26 121.468 1243.94 122.366 1242.25 124.161C1240.56 125.956 1239.71 128.49 1239.71 131.817V152.619H1232V115.396H1239.71V119.673C1240.98 118.142 1242.56 116.928 1244.52 116.083C1246.47 115.238 1248.53 114.816 1250.75 114.816C1253.7 114.816 1256.4 115.449 1258.72 116.716C1261.04 117.984 1262.84 119.779 1264.1 122.207C1265.21 119.937 1267.01 118.142 1269.38 116.822C1271.76 115.502 1274.35 114.816 1277.09 114.816C1280 114.816 1282.64 115.449 1284.96 116.664L1284.91 116.611Z" fill="white"/>
<path d="M1331.9 115.397L1309.04 170.149H1301.06L1308.61 152.039L1293.94 115.397H1302.54L1313 143.802L1323.87 115.397H1331.84H1331.9Z" fill="white"/>
<path d="M1352.28 109.061C1351.33 108.111 1350.85 106.949 1350.85 105.524C1350.85 104.098 1351.33 102.936 1352.28 101.986C1353.23 101.036 1354.39 100.561 1355.82 100.561C1357.24 100.561 1358.3 101.036 1359.25 101.986C1360.2 102.936 1360.67 104.098 1360.67 105.524C1360.67 106.949 1360.2 108.111 1359.25 109.061C1358.3 110.011 1357.14 110.487 1355.82 110.487C1354.5 110.487 1353.23 110.011 1352.28 109.061ZM1359.62 115.397V152.62H1351.91V115.397H1359.62Z" fill="white"/>
<path d="M1394.2 116.611C1396.52 117.825 1398.32 119.62 1399.64 121.996C1400.96 124.372 1401.59 127.276 1401.59 130.655V152.619H1393.93V131.817C1393.93 128.49 1393.09 125.903 1391.45 124.161C1389.76 122.366 1387.49 121.468 1384.64 121.468C1381.79 121.468 1379.47 122.366 1377.78 124.161C1376.09 125.956 1375.24 128.49 1375.24 131.817V152.619H1367.54V115.396H1375.24V119.673C1376.51 118.142 1378.1 116.928 1380.1 116.083C1382.05 115.238 1384.17 114.816 1386.33 114.816C1389.24 114.816 1391.88 115.449 1394.2 116.664V116.611Z" fill="white"/>
<path d="M1475.09 105.682V152.673H1467.38V120.518L1453.07 152.673H1447.74L1433.32 120.518V152.673H1425.62V105.682H1433.91L1450.38 142.535L1466.8 105.682H1475.04H1475.09Z" fill="white"/>
<path d="M1490.29 150.877C1487.44 149.293 1485.22 147.023 1483.58 144.119C1481.95 141.215 1481.16 137.836 1481.16 134.034C1481.16 130.233 1482 126.907 1483.64 123.95C1485.27 120.993 1487.6 118.776 1490.45 117.192C1493.3 115.608 1496.57 114.816 1500.11 114.816C1503.65 114.816 1506.87 115.608 1509.77 117.192C1512.68 118.776 1514.95 121.046 1516.58 123.95C1518.27 126.854 1519.07 130.233 1519.07 134.034C1519.07 137.836 1518.22 141.162 1516.48 144.119C1514.74 147.076 1512.41 149.293 1509.51 150.93C1506.55 152.514 1503.28 153.306 1499.74 153.306C1496.2 153.306 1493.04 152.514 1490.24 150.93L1490.29 150.877ZM1505.39 145.175C1507.13 144.224 1508.56 142.799 1509.61 140.898C1510.72 138.997 1511.25 136.727 1511.25 133.982C1511.25 131.236 1510.72 128.966 1509.72 127.118C1508.66 125.27 1507.29 123.844 1505.6 122.894C1503.91 121.943 1502.06 121.468 1500.06 121.468C1498.05 121.468 1496.26 121.943 1494.57 122.894C1492.88 123.844 1491.56 125.27 1490.55 127.118C1489.55 128.966 1489.08 131.289 1489.08 133.982C1489.08 137.994 1490.08 141.109 1492.14 143.274C1494.2 145.439 1496.78 146.548 1499.9 146.548C1501.91 146.548 1503.75 146.072 1505.5 145.122L1505.39 145.175Z" fill="white"/>
<path d="M1533.11 121.679V142.271C1533.11 143.643 1533.43 144.647 1534.11 145.28C1534.75 145.914 1535.85 146.178 1537.44 146.178H1542.19V152.619H1536.12C1532.63 152.619 1529.99 151.827 1528.15 150.19C1526.3 148.554 1525.4 145.914 1525.4 142.271V121.679H1521.02V115.396H1525.4V106.156H1533.16V115.396H1542.24V121.679H1533.16H1533.11Z" fill="white"/>
<path d="M1547 109.061C1546.05 108.111 1545.57 106.949 1545.57 105.524C1545.57 104.098 1546.05 102.936 1547 101.986C1547.95 101.036 1549.11 100.561 1550.53 100.561C1551.96 100.561 1553.02 101.036 1553.97 101.986C1554.92 102.936 1555.39 104.098 1555.39 105.524C1555.39 106.949 1554.92 108.111 1553.97 109.061C1553.02 110.011 1551.85 110.487 1550.53 110.487C1549.21 110.487 1547.95 110.011 1547 109.061ZM1554.28 115.397V152.62H1546.57V115.397H1554.28Z" fill="white"/>
<path d="M1568.97 150.877C1566.11 149.293 1563.9 147.023 1562.26 144.119C1560.62 141.215 1559.83 137.836 1559.83 134.034C1559.83 130.233 1560.68 126.907 1562.31 123.95C1563.95 120.993 1566.27 118.776 1569.12 117.192C1571.97 115.608 1575.25 114.816 1578.79 114.816C1582.32 114.816 1585.54 115.608 1588.45 117.192C1591.35 118.776 1593.62 121.046 1595.26 123.95C1596.95 126.854 1597.74 130.233 1597.74 134.034C1597.74 137.836 1596.9 141.162 1595.15 144.119C1593.41 147.076 1591.09 149.293 1588.18 150.93C1585.23 152.514 1581.95 153.306 1578.42 153.306C1574.88 153.306 1571.71 152.514 1568.91 150.93L1568.97 150.877ZM1584.07 145.175C1585.81 144.224 1587.23 142.799 1588.29 140.898C1589.4 138.997 1589.93 136.727 1589.93 133.982C1589.93 131.236 1589.4 128.966 1588.39 127.118C1587.34 125.27 1585.97 123.844 1584.28 122.894C1582.59 121.943 1580.74 121.468 1578.73 121.468C1576.73 121.468 1574.93 121.943 1573.24 122.894C1571.55 123.844 1570.23 125.27 1569.23 127.118C1568.23 128.966 1567.75 131.289 1567.75 133.982C1567.75 137.994 1568.75 141.109 1570.81 143.274C1572.87 145.439 1575.46 146.548 1578.57 146.548C1580.58 146.548 1582.43 146.072 1584.17 145.122L1584.07 145.175Z" fill="white"/>
<path d="M1630.15 116.611C1632.48 117.825 1634.27 119.62 1635.59 121.996C1636.91 124.372 1637.55 127.276 1637.55 130.655V152.619H1629.89V131.817C1629.89 128.49 1629.04 125.903 1627.41 124.161C1625.72 122.366 1623.45 121.468 1620.6 121.468C1617.75 121.468 1615.42 122.366 1613.73 124.161C1612.04 125.956 1611.2 128.49 1611.2 131.817V152.619H1603.49V115.396H1611.2V119.673C1612.47 118.142 1614.05 116.928 1616.06 116.083C1618.01 115.238 1620.12 114.816 1622.29 114.816C1625.19 114.816 1627.83 115.449 1630.15 116.664V116.611Z" fill="white"/>
<path d="M1645.41 151.722C1644.46 150.772 1643.99 149.61 1643.99 148.185C1643.99 146.759 1644.46 145.598 1645.41 144.647C1646.36 143.697 1647.52 143.222 1648.95 143.222C1650.37 143.222 1651.43 143.697 1652.38 144.647C1653.33 145.598 1653.81 146.759 1653.81 148.185C1653.81 149.61 1653.33 150.772 1652.38 151.722C1651.43 152.673 1650.27 153.148 1648.95 153.148C1647.63 153.148 1646.36 152.673 1645.41 151.722Z" fill="white"/>
</svg>
