<svg width="846" height="446" viewBox="0 0 846 446" fill="none" xmlns="http://www.w3.org/2000/svg">
<path d="M511.862 129.084V47.259C511.862 36.5862 520.381 27.8539 530.971 27.8539H636.945V1.98047H530.971C506.368 1.98047 486.463 22.1941 486.463 47.1781V129.003C486.463 153.987 506.368 174.2 530.971 174.2H636.945V148.327H530.971C520.461 148.327 511.862 139.676 511.862 128.922V129.084Z" fill="#FF7029"/>
<path d="M546.888 101.028C539.882 101.028 534.149 95.2065 534.149 88.0913C534.149 80.9761 539.882 75.1545 546.888 75.1545H637.018V101.028H546.888Z" fill="#FF7029"/>
<path d="M246.885 2.06201V174.282H221.406V2.06201H246.885Z" fill="#FF7029"/>
<path d="M436.22 2.14282L378.973 144.77C376.425 151.157 367.428 151.157 364.88 144.77L307.634 2.14282H279.448L340.676 154.715C352.062 183.095 391.713 183.095 403.098 154.715L464.326 2.14282H436.141H436.22Z" fill="#FF7029"/>
<path d="M806.85 2.14282L763.696 49.7661C758.202 55.8301 748.886 55.8301 743.393 49.7661L700.239 2.14282H665.683L724.602 67.2306C740.128 84.3717 766.801 84.3717 782.327 67.2306L841.246 2.14282H806.691H806.85Z" fill="#FF7029"/>
<path d="M31.508 174.282L89.3919 30.9268C91.9397 24.6201 100.698 24.6201 103.246 30.9268L161.13 174.282H188.997L127.052 20.9817C115.746 -6.99391 76.8119 -6.99391 65.5058 20.9817L3.56128 174.282H31.4284H31.508Z" fill="#FF7029"/>
<path d="M700.235 174.282L743.469 126.578C748.963 120.514 758.278 120.514 763.772 126.578L807.006 174.282H841.561L782.562 109.032C767.036 91.8912 740.364 91.8912 724.838 109.032L665.839 174.282H700.394H700.235Z" fill="#FF7029"/>
<path d="M7.56943 342.172C5.25145 341.158 3.46467 339.709 2.11251 337.874C0.808646 336.039 0.132568 333.866 0.132568 331.403H7.66601C7.81088 333.238 8.58354 334.784 9.88741 335.991C11.1913 337.198 13.0263 337.778 15.3443 337.778C17.6623 337.778 19.6905 337.198 21.0427 336.039C22.3949 334.88 23.0709 333.335 23.0709 331.5C23.0709 330.051 22.6363 328.892 21.8154 327.975C20.9944 327.057 19.932 326.381 18.6764 325.85C17.4209 325.367 15.6824 324.836 13.461 324.256C10.6601 323.532 8.39038 322.759 6.65189 321.986C4.91341 321.214 3.41638 320.055 2.1608 318.413C0.856938 316.819 0.277442 314.646 0.277442 311.99C0.277442 309.527 0.905229 307.354 2.11251 305.519C3.36808 303.684 5.05828 302.235 7.32797 301.269C9.54937 300.255 12.1088 299.772 15.0546 299.772C19.2076 299.772 22.6363 300.835 25.2923 302.911C27.9484 304.988 29.4454 307.837 29.7351 311.459H21.9602C21.8154 309.914 21.091 308.561 19.7388 307.451C18.3867 306.34 16.5999 305.761 14.3785 305.761C12.3503 305.761 10.7084 306.292 9.45279 307.306C8.19721 308.32 7.52114 309.817 7.52114 311.749C7.52114 313.053 7.90747 314.163 8.72842 314.984C9.54937 315.805 10.5635 316.481 11.7708 317.012C13.0263 317.495 14.7165 318.027 16.8414 318.606C19.6905 319.379 22.0085 320.151 23.7953 320.972C25.5821 321.745 27.1274 322.952 28.383 324.594C29.6385 326.236 30.2663 328.409 30.2663 331.114C30.2663 333.287 29.6868 335.363 28.4796 337.295C27.3206 339.226 25.5821 340.772 23.3607 341.979C21.1393 343.186 18.4833 343.766 15.4409 343.766C12.5434 343.766 9.9357 343.283 7.66601 342.269L7.56943 342.172Z" fill="#FF7029"/>
<path d="M67.3508 328.844H41.3218C41.5149 331.548 42.5291 333.769 44.3641 335.411C46.1992 337.053 48.4206 337.874 51.0283 337.874C54.795 337.874 57.4994 336.281 59.0447 333.093H66.6264C65.6123 336.232 63.7289 338.792 61.0246 340.772C58.3203 342.752 54.9882 343.766 50.98 343.766C47.7445 343.766 44.7987 343.041 42.2393 341.593C39.6799 340.144 37.6516 338.067 36.2029 335.411C34.7542 332.755 34.0298 329.665 34.0298 326.188C34.0298 322.711 34.7542 319.62 36.1546 316.964C37.555 314.308 39.5833 312.28 42.1427 310.831C44.7022 309.382 47.6962 308.658 51.0283 308.658C54.3604 308.658 57.113 309.382 59.6242 310.783C62.1353 312.183 64.1153 314.163 65.5157 316.674C66.9162 319.185 67.5922 322.131 67.5922 325.415C67.5922 326.671 67.4957 327.83 67.3508 328.892V328.844ZM60.2037 323.194C60.2037 320.586 59.2378 318.509 57.4028 316.964C55.5677 315.419 53.3463 314.598 50.642 314.598C48.2274 314.598 46.1509 315.37 44.4124 316.916C42.6739 318.461 41.6598 320.538 41.3218 323.194H60.1554H60.2037Z" fill="#FF7029"/>
<path d="M72.8088 317.012C74.2093 314.356 76.1892 312.328 78.6038 310.879C81.0667 309.431 83.771 308.706 86.7167 308.706C89.3728 308.706 91.739 309.238 93.719 310.3C95.6989 311.362 97.2925 312.666 98.4998 314.212V309.286H105.599V343.331H98.4998V338.261C97.2925 339.854 95.6989 341.206 93.6224 342.269C91.5459 343.331 89.2279 343.862 86.5719 343.862C83.6261 343.862 80.9701 343.09 78.5555 341.593C76.1409 340.096 74.2093 337.971 72.7606 335.267C71.3601 332.562 70.6357 329.52 70.6357 326.091C70.6357 322.662 71.3601 319.62 72.7606 317.012H72.8088ZM97.0994 320.103C96.1335 318.365 94.878 317.061 93.2844 316.143C91.739 315.226 90.0488 314.791 88.2138 314.791C86.3787 314.791 84.6885 315.226 83.1432 316.095C81.5979 316.964 80.294 318.268 79.3282 320.006C78.3623 321.697 77.8794 323.725 77.8794 326.091C77.8794 328.457 78.3623 330.486 79.3282 332.272C80.294 334.059 81.5496 335.411 83.1432 336.329C84.7368 337.246 86.427 337.729 88.1655 337.729C89.904 337.729 91.6425 337.295 93.2361 336.377C94.7814 335.46 96.0852 334.156 97.0511 332.369C98.0169 330.631 98.4998 328.554 98.4998 326.236C98.4998 323.918 98.0169 321.842 97.0511 320.103H97.0994Z" fill="#FF7029"/>
<path d="M161.331 310.3C163.456 311.411 165.146 313.052 166.354 315.226C167.561 317.399 168.189 320.055 168.189 323.145V343.235H161.186V324.208C161.186 321.165 160.414 318.799 158.917 317.206C157.371 315.564 155.295 314.743 152.687 314.743C150.079 314.743 147.955 315.564 146.409 317.206C144.864 318.847 144.091 321.165 144.091 324.208V343.235H137.089V324.208C137.089 321.165 136.316 318.799 134.819 317.206C133.274 315.564 131.197 314.743 128.59 314.743C125.982 314.743 123.857 315.564 122.312 317.206C120.767 318.847 119.994 321.165 119.994 324.208V343.235H112.943V309.189H119.994V313.101C121.153 311.7 122.602 310.59 124.388 309.817C126.175 309.044 128.059 308.658 130.087 308.658C132.791 308.658 135.254 309.237 137.379 310.396C139.504 311.555 141.145 313.197 142.304 315.419C143.319 313.342 144.96 311.7 147.134 310.493C149.307 309.286 151.673 308.658 154.184 308.658C156.84 308.658 159.255 309.237 161.38 310.348L161.331 310.3Z" fill="#FF7029"/>
<path d="M182.192 297.503V343.235H175.142V297.503H182.192Z" fill="#FF7029"/>
<path d="M220.774 328.844H194.745C194.938 331.548 195.952 333.769 197.787 335.411C199.623 337.053 201.844 337.874 204.452 337.874C208.218 337.874 210.923 336.281 212.468 333.093H220.05C219.036 336.232 217.152 338.792 214.448 340.772C211.744 342.752 208.412 343.766 204.403 343.766C201.168 343.766 198.222 343.041 195.663 341.593C193.103 340.144 191.075 338.067 189.626 335.411C188.177 332.755 187.453 329.665 187.453 326.188C187.453 322.711 188.177 319.62 189.578 316.964C190.978 314.308 193.007 312.28 195.566 310.831C198.126 309.382 201.12 308.658 204.452 308.658C207.784 308.658 210.536 309.382 213.048 310.783C215.559 312.183 217.539 314.163 218.939 316.674C220.34 319.185 221.016 322.131 221.016 325.415C221.016 326.671 220.919 327.83 220.774 328.892V328.844ZM213.627 323.194C213.627 320.586 212.661 318.509 210.826 316.964C208.991 315.419 206.77 314.598 204.065 314.598C201.651 314.598 199.574 315.37 197.836 316.916C196.097 318.461 195.083 320.538 194.745 323.194H213.579H213.627Z" fill="#FF7029"/>
<path d="M231.063 342.365C228.938 341.399 227.248 340.096 226.041 338.405C224.833 336.715 224.157 334.88 224.061 332.804H231.353C231.498 334.252 232.174 335.46 233.429 336.425C234.685 337.391 236.278 337.874 238.162 337.874C240.045 337.874 241.687 337.488 242.75 336.715C243.86 335.942 244.391 334.977 244.391 333.769C244.391 332.514 243.764 331.548 242.556 330.92C241.349 330.292 239.417 329.616 236.761 328.892C234.202 328.168 232.125 327.492 230.532 326.864C228.938 326.188 227.538 325.174 226.379 323.821C225.22 322.469 224.64 320.682 224.64 318.461C224.64 316.626 225.171 314.984 226.234 313.487C227.296 311.99 228.842 310.783 230.822 309.913C232.802 309.044 235.12 308.61 237.727 308.61C241.591 308.61 244.729 309.575 247.096 311.555C249.462 313.535 250.718 316.191 250.911 319.572H243.86C243.715 318.026 243.136 316.819 242.025 315.902C240.914 314.984 239.417 314.549 237.534 314.549C235.651 314.549 234.25 314.887 233.284 315.612C232.27 316.336 231.787 317.254 231.787 318.413C231.787 319.33 232.125 320.103 232.802 320.682C233.478 321.31 234.25 321.793 235.216 322.131C236.182 322.469 237.582 322.904 239.417 323.483C241.88 324.159 243.909 324.835 245.502 325.512C247.096 326.188 248.448 327.202 249.607 328.506C250.766 329.809 251.345 331.596 251.394 333.769C251.394 335.701 250.862 337.44 249.8 338.985C248.738 340.53 247.192 341.689 245.261 342.558C243.329 343.428 241.011 343.862 238.355 343.862C235.699 343.862 233.284 343.379 231.16 342.414L231.063 342.365Z" fill="#FF7029"/>
<path d="M262.019 342.365C259.894 341.399 258.204 340.096 256.997 338.405C255.789 336.715 255.113 334.88 255.017 332.804H262.309C262.453 334.252 263.13 335.46 264.385 336.425C265.641 337.391 267.234 337.874 269.118 337.874C271.001 337.874 272.643 337.488 273.705 336.715C274.816 335.942 275.347 334.977 275.347 333.769C275.347 332.514 274.719 331.548 273.512 330.92C272.305 330.292 270.373 329.616 267.717 328.892C265.158 328.168 263.081 327.492 261.488 326.864C259.894 326.188 258.494 325.174 257.335 323.821C256.176 322.469 255.596 320.682 255.596 318.461C255.596 316.626 256.127 314.984 257.19 313.487C258.252 311.99 259.797 310.783 261.777 309.913C263.757 309.044 266.075 308.61 268.683 308.61C272.546 308.61 275.685 309.575 278.052 311.555C280.418 313.535 281.673 316.191 281.867 319.572H274.816C274.671 318.026 274.092 316.819 272.981 315.902C271.87 314.984 270.373 314.549 268.49 314.549C266.607 314.549 265.206 314.887 264.24 315.612C263.226 316.336 262.743 317.254 262.743 318.413C262.743 319.33 263.081 320.103 263.757 320.682C264.433 321.31 265.206 321.793 266.172 322.131C267.138 322.469 268.538 322.904 270.373 323.483C272.836 324.159 274.864 324.835 276.458 325.512C278.052 326.188 279.404 327.202 280.563 328.506C281.722 329.809 282.301 331.596 282.349 333.769C282.349 335.701 281.818 337.44 280.756 338.985C279.693 340.53 278.148 341.689 276.216 342.558C274.285 343.428 271.967 343.862 269.311 343.862C266.655 343.862 264.24 343.379 262.115 342.414L262.019 342.365Z" fill="#FF7029"/>
<path d="M309.873 300.303V343.283H302.822V300.303H309.873Z" fill="#FF7029"/>
<path d="M341.843 310.3C343.968 311.411 345.61 313.052 346.817 315.226C348.024 317.399 348.604 320.055 348.604 323.145V343.235H341.601V324.208C341.601 321.165 340.829 318.799 339.332 317.206C337.786 315.564 335.71 314.743 333.102 314.743C330.494 314.743 328.37 315.564 326.824 317.206C325.279 318.847 324.506 321.165 324.506 324.208V343.235H317.456V309.189H324.506V313.101C325.665 311.7 327.114 310.59 328.949 309.817C330.736 309.044 332.668 308.658 334.647 308.658C337.304 308.658 339.718 309.237 341.843 310.348V310.3Z" fill="#FF7029"/>
<path d="M355.557 317.013C356.958 314.357 358.938 312.329 361.352 310.88C363.815 309.431 366.519 308.707 369.562 308.707C371.783 308.707 374.005 309.19 376.129 310.155C378.302 311.121 379.993 312.425 381.297 314.019V297.503H388.395V343.235H381.297V338.116C380.138 339.758 378.544 341.11 376.516 342.173C374.487 343.235 372.121 343.766 369.513 343.766C366.568 343.766 363.815 342.994 361.4 341.497C358.986 340 357.006 337.875 355.606 335.17C354.205 332.466 353.481 329.424 353.481 325.995C353.481 322.566 354.205 319.524 355.606 316.916L355.557 317.013ZM379.848 320.103C378.882 318.365 377.626 317.061 376.033 316.144C374.487 315.226 372.797 314.791 370.962 314.791C369.127 314.791 367.437 315.226 365.892 316.095C364.346 316.965 363.042 318.268 362.077 320.007C361.111 321.697 360.628 323.725 360.628 326.092C360.628 328.458 361.111 330.486 362.077 332.273C363.042 334.06 364.298 335.412 365.892 336.329C367.485 337.247 369.175 337.73 370.914 337.73C372.652 337.73 374.391 337.295 375.984 336.378C377.53 335.46 378.834 334.156 379.799 332.369C380.765 330.631 381.248 328.554 381.248 326.236C381.248 323.919 380.765 321.842 379.799 320.103H379.848Z" fill="#FF7029"/>
<path d="M426.497 309.19V343.235H419.447V339.227C418.336 340.627 416.887 341.738 415.101 342.559C413.314 343.38 411.382 343.766 409.402 343.766C406.746 343.766 404.332 343.187 402.207 342.076C400.082 340.965 398.392 339.323 397.184 337.15C395.977 334.977 395.349 332.321 395.349 329.231V309.19H402.352V328.168C402.352 331.211 403.124 333.577 404.621 335.17C406.167 336.812 408.243 337.633 410.851 337.633C413.459 337.633 415.583 336.812 417.129 335.17C418.674 333.529 419.447 331.211 419.447 328.168V309.19H426.497Z" fill="#FF7029"/>
<path d="M438.908 342.365C436.783 341.399 435.093 340.096 433.885 338.405C432.678 336.715 432.002 334.88 431.906 332.804H439.197C439.342 334.252 440.018 335.46 441.274 336.425C442.53 337.391 444.123 337.874 446.007 337.874C447.89 337.874 449.532 337.488 450.594 336.715C451.705 335.942 452.236 334.977 452.236 333.769C452.236 332.514 451.608 331.548 450.401 330.92C449.194 330.292 447.262 329.616 444.606 328.892C442.047 328.168 439.97 327.492 438.377 326.864C436.783 326.188 435.382 325.174 434.223 323.821C433.064 322.469 432.485 320.682 432.485 318.461C432.485 316.626 433.016 314.984 434.079 313.487C435.141 311.99 436.686 310.783 438.666 309.913C440.646 309.044 442.964 308.61 445.572 308.61C449.435 308.61 452.574 309.575 454.94 311.555C457.307 313.535 458.562 316.191 458.755 319.572H451.705C451.56 318.026 450.981 316.819 449.87 315.902C448.759 314.984 447.262 314.549 445.379 314.549C443.495 314.549 442.095 314.887 441.129 315.612C440.115 316.336 439.632 317.254 439.632 318.413C439.632 319.33 439.97 320.103 440.646 320.682C441.322 321.31 442.095 321.793 443.061 322.131C444.027 322.469 445.427 322.904 447.262 323.483C449.725 324.159 451.753 324.835 453.347 325.512C454.94 326.188 456.293 327.202 457.452 328.506C458.611 329.809 459.19 331.596 459.238 333.769C459.238 335.701 458.707 337.44 457.645 338.985C456.582 340.53 455.037 341.689 453.105 342.558C451.174 343.428 448.856 343.862 446.2 343.862C443.544 343.862 441.129 343.379 439.004 342.414L438.908 342.365Z" fill="#FF7029"/>
<path d="M472.908 314.937V333.77C472.908 335.026 473.197 335.943 473.825 336.523C474.405 337.102 475.419 337.344 476.867 337.344H481.214V343.235H475.66C472.473 343.235 470.058 342.511 468.368 341.014C466.678 339.517 465.857 337.102 465.857 333.77V314.937H461.849V309.19H465.857V300.739H472.956V309.19H481.262V314.937H472.956H472.908Z" fill="#FF7029"/>
<path d="M496.762 310.107C498.452 309.141 500.48 308.658 502.847 308.658V315.95H501.06C498.307 315.95 496.231 316.674 494.782 318.075C493.382 319.475 492.657 321.89 492.657 325.367V343.283H485.607V309.189H492.657V314.115C493.671 312.376 495.072 311.024 496.762 310.058V310.107Z" fill="#FF7029"/>
<path d="M507.288 303.394C506.419 302.525 505.984 301.463 505.984 300.159C505.984 298.855 506.419 297.792 507.288 296.923C508.157 296.054 509.22 295.619 510.524 295.619C511.827 295.619 512.793 296.054 513.662 296.923C514.532 297.792 514.966 298.855 514.966 300.159C514.966 301.463 514.532 302.525 513.662 303.394C512.793 304.264 511.731 304.698 510.524 304.698C509.316 304.698 508.157 304.264 507.288 303.394ZM513.952 309.189V343.235H506.902V309.189H513.952Z" fill="#FF7029"/>
<path d="M521.154 317.012C522.554 314.356 524.534 312.328 526.949 310.879C529.412 309.431 532.116 308.706 535.062 308.706C537.718 308.706 540.084 309.238 542.064 310.3C544.044 311.362 545.637 312.666 546.845 314.212V309.286H553.944V343.331H546.845V338.261C545.637 339.854 544.044 341.206 541.967 342.269C539.891 343.331 537.573 343.862 534.917 343.862C531.971 343.862 529.315 343.09 526.9 341.593C524.486 340.096 522.554 337.971 521.106 335.267C519.705 332.562 518.981 329.52 518.981 326.091C518.981 322.662 519.705 319.62 521.106 317.012H521.154ZM545.444 320.103C544.478 318.365 543.223 317.061 541.629 316.143C540.084 315.226 538.394 314.791 536.559 314.791C534.724 314.791 533.033 315.226 531.488 316.095C529.943 316.964 528.639 318.268 527.673 320.006C526.707 321.697 526.224 323.725 526.224 326.091C526.224 328.457 526.707 330.486 527.673 332.272C528.639 334.059 529.895 335.411 531.488 336.329C533.082 337.246 534.772 337.729 536.51 337.729C538.249 337.729 539.987 337.295 541.581 336.377C543.126 335.46 544.43 334.156 545.396 332.369C546.362 330.631 546.845 328.554 546.845 326.236C546.845 323.918 546.362 321.842 545.396 320.103H545.444Z" fill="#FF7029"/>
<path d="M568.229 297.503V343.235H561.178V297.503H568.229Z" fill="#FF7029"/>
<path d="M616.429 334.493H598.464L595.374 343.282H588.033L603.438 300.255H611.599L627.004 343.282H619.567L616.477 334.493H616.429ZM614.449 328.747L607.446 308.802L600.396 328.747H614.449Z" fill="#FF7029"/>
<path d="M638.013 300.303V343.283H630.962V300.303H638.013Z" fill="#FF7029"/>
<path d="M697.317 300.303L681.188 343.283H673.026L656.849 300.303H664.382L677.131 336.039L689.928 300.303H697.365H697.317Z" fill="#FF7029"/>
<path d="M701.807 303.394C700.938 302.525 700.503 301.463 700.503 300.159C700.503 298.855 700.938 297.792 701.807 296.923C702.676 296.054 703.739 295.619 705.043 295.619C706.346 295.619 707.312 296.054 708.181 296.923C709.051 297.792 709.485 298.855 709.485 300.159C709.485 301.463 709.051 302.525 708.181 303.394C707.312 304.264 706.25 304.698 705.043 304.698C703.835 304.698 702.676 304.264 701.807 303.394ZM708.471 309.189V343.235H701.421V309.189H708.471Z" fill="#FF7029"/>
<path d="M720.786 342.365C718.662 341.399 716.971 340.096 715.764 338.405C714.557 336.715 713.881 334.88 713.784 332.804H721.076C721.221 334.252 721.897 335.46 723.153 336.425C724.408 337.391 726.002 337.874 727.885 337.874C729.769 337.874 731.41 337.488 732.473 336.715C733.584 335.942 734.115 334.977 734.115 333.769C734.115 332.514 733.487 331.548 732.28 330.92C731.072 330.292 729.141 329.616 726.485 328.892C723.925 328.168 721.849 327.492 720.255 326.864C718.662 326.188 717.261 325.174 716.102 323.821C714.943 322.469 714.364 320.682 714.364 318.461C714.364 316.626 714.895 314.984 715.957 313.487C717.02 311.99 718.565 310.783 720.545 309.913C722.525 309.044 724.843 308.61 727.451 308.61C731.314 308.61 734.453 309.575 736.819 311.555C739.185 313.535 740.441 316.191 740.634 319.572H733.584C733.439 318.026 732.859 316.819 731.749 315.902C730.638 314.984 729.141 314.549 727.257 314.549C725.374 314.549 723.974 314.887 723.008 315.612C721.994 316.336 721.511 317.254 721.511 318.413C721.511 319.33 721.849 320.103 722.525 320.682C723.201 321.31 723.974 321.793 724.939 322.131C725.905 322.469 727.306 322.904 729.141 323.483C731.604 324.159 733.632 324.835 735.226 325.512C736.819 326.188 738.171 327.202 739.33 328.506C740.489 329.809 741.069 331.596 741.117 333.769C741.117 335.701 740.586 337.44 739.523 338.985C738.461 340.53 736.916 341.689 734.984 342.558C733.052 343.428 730.734 343.862 728.078 343.862C725.422 343.862 723.008 343.379 720.883 342.414L720.786 342.365Z" fill="#FF7029"/>
<path d="M746.912 303.394C746.042 302.525 745.608 301.463 745.608 300.159C745.608 298.855 746.042 297.792 746.912 296.923C747.781 296.054 748.843 295.619 750.147 295.619C751.451 295.619 752.417 296.054 753.286 296.923C754.155 297.792 754.59 298.855 754.59 300.159C754.59 301.463 754.155 302.525 753.286 303.394C752.417 304.264 751.354 304.698 750.147 304.698C748.94 304.698 747.781 304.264 746.912 303.394ZM753.576 309.189V343.235H746.525V309.189H753.576Z" fill="#FF7029"/>
<path d="M767.001 341.641C764.393 340.192 762.365 338.116 760.868 335.46C759.371 332.804 758.646 329.713 758.646 326.236C758.646 322.759 759.419 319.717 760.916 317.012C762.413 314.308 764.538 312.28 767.146 310.831C769.753 309.382 772.748 308.658 775.983 308.658C779.219 308.658 782.164 309.382 784.82 310.831C787.476 312.28 789.553 314.356 791.05 317.012C792.595 319.668 793.32 322.759 793.32 326.236C793.32 329.713 792.547 332.755 790.953 335.46C789.36 338.164 787.235 340.192 784.579 341.689C781.875 343.138 778.88 343.862 775.645 343.862C772.409 343.862 769.512 343.138 766.953 341.689L767.001 341.641ZM780.812 336.425C782.406 335.556 783.71 334.252 784.675 332.514C785.69 330.775 786.173 328.699 786.173 326.188C786.173 323.677 785.69 321.6 784.772 319.91C783.806 318.22 782.551 316.916 781.005 316.047C779.46 315.177 777.77 314.743 775.935 314.743C774.1 314.743 772.458 315.177 770.912 316.047C769.367 316.916 768.16 318.22 767.242 319.91C766.325 321.6 765.89 323.725 765.89 326.188C765.89 329.858 766.808 332.707 768.691 334.687C770.574 336.667 772.941 337.681 775.79 337.681C777.625 337.681 779.315 337.246 780.909 336.377L780.812 336.425Z" fill="#FF7029"/>
<path d="M822.921 310.3C825.046 311.411 826.688 313.052 827.895 315.226C829.102 317.399 829.682 320.055 829.682 323.145V343.235H822.68V324.208C822.68 321.165 821.907 318.799 820.41 317.206C818.865 315.564 816.788 314.743 814.18 314.743C811.573 314.743 809.448 315.564 807.902 317.206C806.357 318.847 805.584 321.165 805.584 324.208V343.235H798.534V309.189H805.584V313.101C806.743 311.7 808.192 310.59 810.027 309.817C811.814 309.044 813.746 308.658 815.726 308.658C818.382 308.658 820.796 309.237 822.921 310.348V310.3Z" fill="#FF7029"/>
<path d="M844.991 334.783L837.506 351.83H832.918L837.312 334.783H844.991Z" fill="#FF7029"/>
<path d="M151.046 419.973H133.081L129.991 428.762H122.65L138.055 385.735H146.217L161.621 428.762H154.185L151.094 419.973H151.046ZM149.066 414.226L142.063 394.282L135.013 414.226H149.066Z" fill="#FF7029"/>
<path d="M195.664 394.668V428.714H188.613V424.705C187.502 426.106 186.054 427.217 184.267 428.037C182.48 428.858 180.548 429.245 178.568 429.245C175.912 429.245 173.498 428.665 171.373 427.555C169.248 426.444 167.558 424.802 166.351 422.629C165.143 420.456 164.516 417.8 164.516 414.709V394.668H171.518V413.647C171.518 416.689 172.291 419.055 173.788 420.649C175.333 422.291 177.409 423.112 180.017 423.112C182.625 423.112 184.75 422.291 186.295 420.649C187.84 419.007 188.613 416.689 188.613 413.647V394.668H195.664Z" fill="#FF7029"/>
<path d="M211.024 400.414V419.248C211.024 420.504 211.314 421.421 211.942 422.001C212.521 422.58 213.535 422.822 214.984 422.822H219.33V428.713H213.777C210.589 428.713 208.175 427.989 206.485 426.492C204.794 424.995 203.973 422.58 203.973 419.248V400.414H199.965V394.668H203.973V386.217H211.072V394.668H219.378V400.414H211.072H211.024Z" fill="#FF7029"/>
<path d="M229.18 427.12C226.572 425.671 224.544 423.594 223.047 420.938C221.55 418.282 220.825 415.192 220.825 411.715C220.825 408.238 221.598 405.195 223.095 402.491C224.592 399.787 226.717 397.759 229.325 396.31C231.932 394.861 234.927 394.137 238.162 394.137C241.398 394.137 244.343 394.861 246.999 396.31C249.655 397.759 251.732 399.835 253.229 402.491C254.774 405.147 255.499 408.238 255.499 411.715C255.499 415.192 254.726 418.234 253.132 420.938C251.539 423.643 249.414 425.671 246.758 427.168C244.054 428.617 241.059 429.341 237.824 429.341C234.588 429.341 231.691 428.617 229.132 427.168L229.18 427.12ZM242.991 421.904C244.585 421.035 245.889 419.731 246.854 417.993C247.869 416.254 248.351 414.178 248.351 411.666C248.351 409.155 247.869 407.079 246.951 405.389C245.985 403.698 244.73 402.395 243.184 401.525C241.639 400.656 239.949 400.221 238.114 400.221C236.279 400.221 234.637 400.656 233.091 401.525C231.546 402.395 230.339 403.698 229.421 405.389C228.504 407.079 228.069 409.204 228.069 411.666C228.069 415.337 228.987 418.186 230.87 420.166C232.753 422.146 235.12 423.16 237.969 423.16C239.804 423.16 241.494 422.725 243.088 421.856L242.991 421.904Z" fill="#FF7029"/>
<path d="M285.098 395.779C287.223 396.889 288.865 398.531 290.072 400.704C291.28 402.877 291.859 405.533 291.859 408.624V428.713H284.857V409.687C284.857 406.644 284.084 404.278 282.587 402.684C281.042 401.042 278.965 400.221 276.358 400.221C273.75 400.221 271.625 401.042 270.08 402.684C268.534 404.326 267.762 406.644 267.762 409.687V428.713H260.711V394.668H267.762V398.58C268.921 397.179 270.369 396.068 272.205 395.296C273.991 394.523 275.923 394.137 277.903 394.137C280.559 394.137 282.973 394.716 285.098 395.827V395.779Z" fill="#FF7029"/>
<path d="M305.044 427.12C302.437 425.671 300.408 423.594 298.911 420.938C297.414 418.282 296.69 415.192 296.69 411.715C296.69 408.238 297.463 405.195 298.96 402.491C300.457 399.787 302.581 397.759 305.189 396.31C307.797 394.861 310.791 394.137 314.027 394.137C317.262 394.137 320.208 394.861 322.864 396.31C325.52 397.759 327.596 399.835 329.093 402.491C330.639 405.147 331.363 408.238 331.363 411.715C331.363 415.192 330.59 418.234 328.997 420.938C327.403 423.643 325.278 425.671 322.622 427.168C319.918 428.617 316.924 429.341 313.688 429.341C310.453 429.341 307.555 428.617 304.996 427.168L305.044 427.12ZM318.856 421.904C320.449 421.035 321.753 419.731 322.719 417.993C323.733 416.254 324.216 414.178 324.216 411.666C324.216 409.155 323.733 407.079 322.816 405.389C321.85 403.698 320.594 402.395 319.049 401.525C317.503 400.656 315.813 400.221 313.978 400.221C312.143 400.221 310.501 400.656 308.956 401.525C307.411 402.395 306.203 403.698 305.286 405.389C304.368 407.079 303.934 409.204 303.934 411.666C303.934 415.337 304.851 418.186 306.735 420.166C308.618 422.146 310.984 423.16 313.833 423.16C315.668 423.16 317.359 422.725 318.952 421.856L318.856 421.904Z" fill="#FF7029"/>
<path d="M385.066 395.779C387.19 396.889 388.881 398.531 390.088 400.704C391.295 402.877 391.923 405.533 391.923 408.624V428.713H384.921V409.687C384.921 406.644 384.148 404.278 382.651 402.684C381.106 401.042 379.029 400.221 376.421 400.221C373.814 400.221 371.689 401.042 370.144 402.684C368.598 404.326 367.826 406.644 367.826 409.687V428.713H360.823V409.687C360.823 406.644 360.051 404.278 358.554 402.684C357.008 401.042 354.932 400.221 352.324 400.221C349.716 400.221 347.592 401.042 346.046 402.684C344.501 404.326 343.728 406.644 343.728 409.687V428.713H336.678V394.668H343.728V398.58C344.887 397.179 346.336 396.068 348.123 395.296C349.91 394.523 351.793 394.137 353.821 394.137C356.525 394.137 358.988 394.716 361.113 395.875C363.238 397.034 364.88 398.676 366.039 400.897C367.053 398.821 368.695 397.179 370.868 395.972C373.041 394.765 375.407 394.137 377.919 394.137C380.575 394.137 382.989 394.716 385.114 395.827L385.066 395.779Z" fill="#FF7029"/>
<path d="M428.044 394.668L407.134 444.746H399.842L406.748 428.182L393.323 394.668H401.194L410.756 420.649L420.704 394.668H427.996H428.044Z" fill="#FF7029"/>
<path d="M446.685 388.873C445.815 388.004 445.381 386.942 445.381 385.638C445.381 384.334 445.815 383.271 446.685 382.402C447.554 381.533 448.616 381.098 449.92 381.098C451.224 381.098 452.19 381.533 453.059 382.402C453.928 383.271 454.363 384.334 454.363 385.638C454.363 386.942 453.928 388.004 453.059 388.873C452.19 389.743 451.127 390.177 449.92 390.177C448.713 390.177 447.554 389.743 446.685 388.873ZM453.397 394.668V428.714H446.347V394.668H453.397Z" fill="#FF7029"/>
<path d="M485.027 395.779C487.152 396.889 488.794 398.531 490.001 400.704C491.208 402.877 491.788 405.533 491.788 408.624V428.713H484.786V409.687C484.786 406.644 484.013 404.278 482.516 402.684C480.971 401.042 478.894 400.221 476.286 400.221C473.679 400.221 471.554 401.042 470.008 402.684C468.463 404.326 467.69 406.644 467.69 409.687V428.713H460.64V394.668H467.69V398.58C468.849 397.179 470.298 396.068 472.133 395.296C473.92 394.523 475.852 394.137 477.832 394.137C480.488 394.137 482.902 394.716 485.027 395.827V395.779Z" fill="#FF7029"/>
<path d="M559.011 385.783V428.762H551.961V399.353L538.874 428.762H533.996L520.813 399.353V428.762H513.762V385.783H521.344L536.411 419.49L551.429 385.783H558.963H559.011Z" fill="#FF7029"/>
<path d="M572.915 427.12C570.307 425.671 568.279 423.594 566.782 420.938C565.285 418.282 564.561 415.192 564.561 411.715C564.561 408.238 565.333 405.195 566.83 402.491C568.328 399.787 570.452 397.759 573.06 396.31C575.668 394.861 578.662 394.137 581.897 394.137C585.133 394.137 588.079 394.861 590.735 396.31C593.391 397.759 595.467 399.835 596.964 402.491C598.51 405.147 599.234 408.238 599.234 411.715C599.234 415.192 598.461 418.234 596.868 420.938C595.274 423.643 593.149 425.671 590.493 427.168C587.789 428.617 584.795 429.341 581.559 429.341C578.324 429.341 575.426 428.617 572.867 427.168L572.915 427.12ZM586.727 421.904C588.32 421.035 589.624 419.731 590.59 417.993C591.604 416.254 592.087 414.178 592.087 411.666C592.087 409.155 591.604 407.079 590.686 405.389C589.721 403.698 588.465 402.395 586.92 401.525C585.374 400.656 583.684 400.221 581.849 400.221C580.014 400.221 578.372 400.656 576.827 401.525C575.281 402.395 574.074 403.698 573.157 405.389C572.239 407.079 571.804 409.204 571.804 411.666C571.804 415.337 572.722 418.186 574.605 420.166C576.489 422.146 578.855 423.16 581.704 423.16C583.539 423.16 585.229 422.725 586.823 421.856L586.727 421.904Z" fill="#FF7029"/>
<path d="M612.079 400.414V419.248C612.079 420.504 612.369 421.421 612.997 422.001C613.576 422.58 614.59 422.822 616.039 422.822H620.385V428.713H614.832C611.645 428.713 609.23 427.989 607.54 426.492C605.85 424.995 605.029 422.58 605.029 419.248V400.414H601.021V394.668H605.029V386.217H612.128V394.668H620.434V400.414H612.128H612.079Z" fill="#FF7029"/>
<path d="M624.782 388.873C623.912 388.004 623.478 386.942 623.478 385.638C623.478 384.334 623.912 383.271 624.782 382.402C625.651 381.533 626.713 381.098 628.017 381.098C629.321 381.098 630.287 381.533 631.156 382.402C632.025 383.271 632.46 384.334 632.46 385.638C632.46 386.942 632.025 388.004 631.156 388.873C630.287 389.743 629.224 390.177 628.017 390.177C626.81 390.177 625.651 389.743 624.782 388.873ZM631.446 394.668V428.714H624.395V394.668H631.446Z" fill="#FF7029"/>
<path d="M644.874 427.12C642.267 425.671 640.238 423.594 638.741 420.938C637.244 418.282 636.52 415.192 636.52 411.715C636.52 408.238 637.293 405.195 638.79 402.491C640.287 399.787 642.412 397.759 645.019 396.31C647.627 394.861 650.621 394.137 653.857 394.137C657.092 394.137 660.038 394.861 662.694 396.31C665.35 397.759 667.426 399.835 668.923 402.491C670.469 405.147 671.193 408.238 671.193 411.715C671.193 415.192 670.42 418.234 668.827 420.938C667.233 423.643 665.108 425.671 662.452 427.168C659.748 428.617 656.754 429.341 653.519 429.341C650.283 429.341 647.386 428.617 644.826 427.168L644.874 427.12ZM658.686 421.904C660.279 421.035 661.583 419.731 662.549 417.993C663.563 416.254 664.046 414.178 664.046 411.666C664.046 409.155 663.563 407.079 662.646 405.389C661.68 403.698 660.424 402.395 658.879 401.525C657.334 400.656 655.643 400.221 653.808 400.221C651.973 400.221 650.331 400.656 648.786 401.525C647.241 402.395 646.033 403.698 645.116 405.389C644.198 407.079 643.764 409.204 643.764 411.666C643.764 415.337 644.681 418.186 646.565 420.166C648.448 422.146 650.814 423.16 653.663 423.16C655.498 423.16 657.189 422.725 658.782 421.856L658.686 421.904Z" fill="#FF7029"/>
<path d="M700.839 395.779C702.964 396.889 704.606 398.531 705.813 400.704C707.02 402.877 707.6 405.533 707.6 408.624V428.713H700.598V409.687C700.598 406.644 699.825 404.278 698.328 402.684C696.783 401.042 694.706 400.221 692.098 400.221C689.491 400.221 687.366 401.042 685.82 402.684C684.275 404.326 683.502 406.644 683.502 409.687V428.713H676.452V394.668H683.502V398.58C684.661 397.179 686.11 396.068 687.945 395.296C689.732 394.523 691.664 394.137 693.644 394.137C696.3 394.137 698.714 394.716 700.839 395.827V395.779Z" fill="#FF7029"/>
<path d="M714.794 427.893C713.925 427.024 713.49 425.961 713.49 424.657C713.49 423.353 713.925 422.291 714.794 421.422C715.664 420.553 716.726 420.118 718.03 420.118C719.334 420.118 720.3 420.553 721.169 421.422C722.038 422.291 722.473 423.353 722.473 424.657C722.473 425.961 722.038 427.024 721.169 427.893C720.3 428.762 719.237 429.197 718.03 429.197C716.823 429.197 715.664 428.762 714.794 427.893Z" fill="#FF7029"/>
</svg>
