<svg width="846" height="446" viewBox="0 0 846 446" fill="none" xmlns="http://www.w3.org/2000/svg">
<path d="M511.862 129.084V47.259C511.862 36.5862 520.381 27.8539 530.97 27.8539H636.945V1.98047H530.97C506.368 1.98047 486.463 22.1941 486.463 47.1781V129.003C486.463 153.987 506.368 174.2 530.97 174.2H636.945V148.327H530.97C520.46 148.327 511.862 139.676 511.862 128.922V129.084Z" fill="white"/>
<path d="M546.887 101.028C539.881 101.028 534.148 95.2065 534.148 88.0913C534.148 80.9761 539.881 75.1545 546.887 75.1545H637.018V101.028H546.887Z" fill="white"/>
<path d="M246.884 2.06189V174.282H221.406V2.06189H246.884Z" fill="white"/>
<path d="M436.22 2.14282L378.973 144.77C376.425 151.158 367.428 151.158 364.88 144.77L307.634 2.14282H279.448L340.676 154.715C352.062 183.095 391.712 183.095 403.098 154.715L464.326 2.14282H436.141H436.22Z" fill="white"/>
<path d="M806.849 2.14282L763.695 49.7661C758.202 55.8302 748.886 55.8302 743.392 49.7661L700.238 2.14282H665.683L724.602 67.2306C740.128 84.3718 766.801 84.3718 782.326 67.2306L841.245 2.14282H806.69H806.849Z" fill="white"/>
<path d="M31.5078 174.282L89.3916 30.9268C91.9395 24.6201 100.698 24.6201 103.246 30.9268L161.129 174.282H188.997L127.052 20.9817C115.746 -6.99391 76.8116 -6.99391 65.5056 20.9817L3.56104 174.282H31.4281H31.5078Z" fill="white"/>
<path d="M700.235 174.282L743.469 126.578C748.963 120.514 758.278 120.514 763.772 126.578L807.006 174.282H841.561L782.562 109.032C767.036 91.8912 740.364 91.8912 724.838 109.032L665.839 174.282H700.394H700.235Z" fill="white"/>
<path d="M7.56943 342.553C5.25145 341.539 3.46467 340.09 2.11251 338.255C0.808646 336.42 0.132568 334.247 0.132568 331.784H7.66601C7.81088 333.619 8.58354 335.164 9.88741 336.372C11.1913 337.579 13.0263 338.158 15.3443 338.158C17.6623 338.158 19.6905 337.579 21.0427 336.42C22.3949 335.261 23.0709 333.716 23.0709 331.88C23.0709 330.432 22.6363 329.273 21.8154 328.355C20.9944 327.438 19.932 326.762 18.6764 326.23C17.4209 325.747 15.6824 325.216 13.461 324.637C10.6601 323.912 8.39038 323.14 6.65189 322.367C4.91341 321.594 3.41638 320.435 2.1608 318.794C0.856938 317.2 0.277442 315.027 0.277442 312.371C0.277442 309.908 0.905229 307.735 2.11251 305.9C3.36808 304.065 5.05828 302.616 7.32797 301.65C9.54937 300.636 12.1088 300.153 15.0546 300.153C19.2076 300.153 22.6363 301.215 25.2923 303.292C27.9484 305.369 29.4454 308.218 29.7351 311.84H21.9602C21.8154 310.294 21.091 308.942 19.7388 307.831C18.3867 306.721 16.5999 306.141 14.3785 306.141C12.3503 306.141 10.7084 306.672 9.45279 307.687C8.19721 308.701 7.52114 310.198 7.52114 312.129C7.52114 313.433 7.90747 314.544 8.72842 315.365C9.54937 316.186 10.5635 316.862 11.7708 317.393C13.0263 317.876 14.7165 318.407 16.8414 318.987C19.6905 319.759 22.0085 320.532 23.7953 321.353C25.5821 322.126 27.1274 323.333 28.383 324.975C29.6385 326.617 30.2663 328.79 30.2663 331.494C30.2663 333.667 29.6868 335.744 28.4796 337.675C27.3206 339.607 25.5821 341.152 23.3607 342.36C21.1393 343.567 18.4833 344.146 15.4409 344.146C12.5434 344.146 9.9357 343.664 7.66601 342.649L7.56943 342.553Z" fill="white"/>
<path d="M67.3508 329.224H41.3218C41.5149 331.929 42.5291 334.15 44.3641 335.792C46.1992 337.434 48.4206 338.255 51.0283 338.255C54.795 338.255 57.4994 336.661 59.0447 333.474H66.6264C65.6123 336.613 63.7289 339.172 61.0246 341.152C58.3203 343.132 54.9882 344.146 50.98 344.146C47.7445 344.146 44.7987 343.422 42.2393 341.973C39.6799 340.524 37.6516 338.448 36.2029 335.792C34.7542 333.136 34.0298 330.045 34.0298 326.568C34.0298 323.091 34.7542 320.001 36.1546 317.345C37.555 314.689 39.5833 312.66 42.1427 311.212C44.7022 309.763 47.6962 309.039 51.0283 309.039C54.3604 309.039 57.113 309.763 59.6242 311.163C62.1353 312.564 64.1153 314.544 65.5157 317.055C66.9162 319.566 67.5922 322.512 67.5922 325.796C67.5922 327.051 67.4957 328.21 67.3508 329.273V329.224ZM60.2037 323.574C60.2037 320.967 59.2378 318.89 57.4028 317.345C55.5677 315.799 53.3463 314.978 50.642 314.978C48.2274 314.978 46.1509 315.751 44.4124 317.296C42.6739 318.842 41.6598 320.918 41.3218 323.574H60.1554H60.2037Z" fill="white"/>
<path d="M72.8088 317.393C74.2093 314.737 76.1892 312.709 78.6038 311.26C81.0667 309.812 83.771 309.087 86.7167 309.087C89.3728 309.087 91.739 309.618 93.719 310.681C95.6989 311.743 97.2925 313.047 98.4998 314.592V309.667H105.599V343.712H98.4998V338.641C97.2925 340.235 95.6989 341.587 93.6224 342.65C91.5459 343.712 89.2279 344.243 86.5719 344.243C83.6261 344.243 80.9701 343.471 78.5555 341.974C76.1409 340.477 74.2093 338.352 72.7606 335.647C71.3601 332.943 70.6357 329.901 70.6357 326.472C70.6357 323.043 71.3601 320.001 72.7606 317.393H72.8088ZM97.0994 320.484C96.1335 318.745 94.878 317.442 93.2844 316.524C91.739 315.606 90.0488 315.172 88.2138 315.172C86.3787 315.172 84.6885 315.606 83.1432 316.476C81.5979 317.345 80.294 318.649 79.3282 320.387C78.3623 322.078 77.8794 324.106 77.8794 326.472C77.8794 328.838 78.3623 330.867 79.3282 332.653C80.294 334.44 81.5496 335.792 83.1432 336.71C84.7368 337.627 86.427 338.11 88.1655 338.11C89.904 338.11 91.6425 337.676 93.2361 336.758C94.7814 335.841 96.0852 334.537 97.0511 332.75C98.0169 331.011 98.4998 328.935 98.4998 326.617C98.4998 324.299 98.0169 322.222 97.0511 320.484H97.0994Z" fill="white"/>
<path d="M161.331 310.68C163.456 311.791 165.146 313.433 166.354 315.606C167.561 317.779 168.189 320.435 168.189 323.526V343.615H161.186V324.588C161.186 321.546 160.414 319.18 158.917 317.586C157.371 315.944 155.295 315.123 152.687 315.123C150.079 315.123 147.955 315.944 146.409 317.586C144.864 319.228 144.091 321.546 144.091 324.588V343.615H137.089V324.588C137.089 321.546 136.316 319.18 134.819 317.586C133.274 315.944 131.197 315.123 128.59 315.123C125.982 315.123 123.857 315.944 122.312 317.586C120.767 319.228 119.994 321.546 119.994 324.588V343.615H112.943V309.57H119.994V313.481C121.153 312.081 122.602 310.97 124.388 310.198C126.175 309.425 128.059 309.039 130.087 309.039C132.791 309.039 135.254 309.618 137.379 310.777C139.504 311.936 141.145 313.578 142.304 315.799C143.319 313.723 144.96 312.081 147.134 310.874C149.307 309.666 151.673 309.039 154.184 309.039C156.84 309.039 159.255 309.618 161.38 310.729L161.331 310.68Z" fill="white"/>
<path d="M182.192 297.884V343.616H175.142V297.884H182.192Z" fill="white"/>
<path d="M220.774 329.224H194.745C194.938 331.929 195.952 334.15 197.787 335.792C199.622 337.434 201.844 338.255 204.451 338.255C208.218 338.255 210.922 336.661 212.468 333.474H220.05C219.035 336.613 217.152 339.172 214.448 341.152C211.743 343.132 208.411 344.146 204.403 344.146C201.168 344.146 198.222 343.422 195.662 341.973C193.103 340.524 191.075 338.448 189.626 335.792C188.177 333.136 187.453 330.045 187.453 326.568C187.453 323.091 188.177 320.001 189.578 317.345C190.978 314.689 193.006 312.66 195.566 311.212C198.125 309.763 201.119 309.039 204.451 309.039C207.784 309.039 210.536 309.763 213.047 311.163C215.558 312.564 217.538 314.544 218.939 317.055C220.339 319.566 221.015 322.512 221.015 325.796C221.015 327.051 220.919 328.21 220.774 329.273V329.224ZM213.627 323.574C213.627 320.967 212.661 318.89 210.826 317.345C208.991 315.799 206.769 314.978 204.065 314.978C201.651 314.978 199.574 315.751 197.835 317.296C196.097 318.842 195.083 320.918 194.745 323.574H213.578H213.627Z" fill="white"/>
<path d="M231.063 342.746C228.938 341.78 227.248 340.476 226.041 338.786C224.833 337.096 224.157 335.261 224.061 333.184H231.353C231.498 334.633 232.174 335.84 233.429 336.806C234.685 337.772 236.278 338.255 238.162 338.255C240.045 338.255 241.687 337.868 242.75 337.096C243.86 336.323 244.391 335.357 244.391 334.15C244.391 332.894 243.764 331.929 242.556 331.301C241.349 330.673 239.417 329.997 236.761 329.273C234.202 328.548 232.125 327.872 230.532 327.244C228.938 326.568 227.538 325.554 226.379 324.202C225.22 322.85 224.64 321.063 224.64 318.842C224.64 317.007 225.171 315.365 226.234 313.868C227.296 312.371 228.842 311.163 230.822 310.294C232.802 309.425 235.12 308.99 237.727 308.99C241.591 308.99 244.729 309.956 247.096 311.936C249.462 313.916 250.718 316.572 250.911 319.952H243.86C243.715 318.407 243.136 317.2 242.025 316.282C240.914 315.365 239.417 314.93 237.534 314.93C235.651 314.93 234.25 315.268 233.284 315.992C232.27 316.717 231.787 317.634 231.787 318.793C231.787 319.711 232.125 320.484 232.802 321.063C233.478 321.691 234.25 322.174 235.216 322.512C236.182 322.85 237.582 323.284 239.417 323.864C241.88 324.54 243.909 325.216 245.502 325.892C247.096 326.568 248.448 327.582 249.607 328.886C250.766 330.19 251.345 331.977 251.394 334.15C251.394 336.082 250.862 337.82 249.8 339.365C248.738 340.911 247.192 342.07 245.261 342.939C243.329 343.808 241.011 344.243 238.355 344.243C235.699 344.243 233.284 343.76 231.16 342.794L231.063 342.746Z" fill="white"/>
<path d="M262.019 342.746C259.894 341.78 258.204 340.476 256.997 338.786C255.789 337.096 255.113 335.261 255.017 333.184H262.309C262.453 334.633 263.13 335.84 264.385 336.806C265.641 337.772 267.234 338.255 269.118 338.255C271.001 338.255 272.643 337.868 273.705 337.096C274.816 336.323 275.347 335.357 275.347 334.15C275.347 332.894 274.719 331.929 273.512 331.301C272.305 330.673 270.373 329.997 267.717 329.273C265.158 328.548 263.081 327.872 261.488 327.244C259.894 326.568 258.494 325.554 257.335 324.202C256.176 322.85 255.596 321.063 255.596 318.842C255.596 317.007 256.127 315.365 257.19 313.868C258.252 312.371 259.797 311.163 261.777 310.294C263.757 309.425 266.075 308.99 268.683 308.99C272.546 308.99 275.685 309.956 278.052 311.936C280.418 313.916 281.673 316.572 281.867 319.952H274.816C274.671 318.407 274.092 317.2 272.981 316.282C271.87 315.365 270.373 314.93 268.49 314.93C266.607 314.93 265.206 315.268 264.24 315.992C263.226 316.717 262.743 317.634 262.743 318.793C262.743 319.711 263.081 320.484 263.757 321.063C264.433 321.691 265.206 322.174 266.172 322.512C267.138 322.85 268.538 323.284 270.373 323.864C272.836 324.54 274.864 325.216 276.458 325.892C278.052 326.568 279.404 327.582 280.563 328.886C281.722 330.19 282.301 331.977 282.349 334.15C282.349 336.082 281.818 337.82 280.756 339.365C279.693 340.911 278.148 342.07 276.216 342.939C274.285 343.808 271.967 344.243 269.311 344.243C266.655 344.243 264.24 343.76 262.115 342.794L262.019 342.746Z" fill="white"/>
<path d="M309.872 300.684V343.663H302.822V300.684H309.872Z" fill="white"/>
<path d="M341.843 310.68C343.968 311.791 345.61 313.433 346.817 315.606C348.024 317.779 348.604 320.435 348.604 323.526V343.615H341.601V324.588C341.601 321.546 340.829 319.18 339.332 317.586C337.786 315.944 335.71 315.123 333.102 315.123C330.494 315.123 328.37 315.944 326.824 317.586C325.279 319.228 324.506 321.546 324.506 324.588V343.615H317.456V309.57H324.506V313.481C325.665 312.081 327.114 310.97 328.949 310.198C330.736 309.425 332.668 309.039 334.647 309.039C337.304 309.039 339.718 309.618 341.843 310.729V310.68Z" fill="white"/>
<path d="M355.557 317.394C356.958 314.738 358.938 312.709 361.352 311.261C363.815 309.812 366.519 309.087 369.562 309.087C371.783 309.087 374.005 309.57 376.129 310.536C378.302 311.502 379.993 312.806 381.297 314.4V297.884H388.395V343.616H381.297V338.497C380.138 340.139 378.544 341.491 376.516 342.553C374.487 343.616 372.121 344.147 369.513 344.147C366.568 344.147 363.815 343.374 361.4 341.877C358.986 340.38 357.006 338.255 355.606 335.551C354.205 332.847 353.481 329.804 353.481 326.376C353.481 322.947 354.205 319.905 355.606 317.297L355.557 317.394ZM379.848 320.484C378.882 318.746 377.626 317.442 376.033 316.524C374.487 315.607 372.797 315.172 370.962 315.172C369.127 315.172 367.437 315.607 365.892 316.476C364.346 317.345 363.042 318.649 362.077 320.388C361.111 322.078 360.628 324.106 360.628 326.472C360.628 328.839 361.111 330.867 362.077 332.654C363.042 334.44 364.298 335.793 365.892 336.71C367.485 337.628 369.175 338.111 370.914 338.111C372.652 338.111 374.391 337.676 375.984 336.758C377.53 335.841 378.834 334.537 379.799 332.75C380.765 331.012 381.248 328.935 381.248 326.617C381.248 324.299 380.765 322.223 379.799 320.484H379.848Z" fill="white"/>
<path d="M426.497 309.57V343.616H419.447V339.607C418.336 341.008 416.887 342.119 415.101 342.939C413.314 343.76 411.382 344.147 409.402 344.147C406.746 344.147 404.332 343.567 402.207 342.457C400.082 341.346 398.392 339.704 397.184 337.531C395.977 335.358 395.349 332.702 395.349 329.611V309.57H402.352V328.549C402.352 331.591 403.124 333.957 404.621 335.551C406.167 337.193 408.243 338.014 410.851 338.014C413.459 338.014 415.583 337.193 417.129 335.551C418.674 333.909 419.447 331.591 419.447 328.549V309.57H426.497Z" fill="white"/>
<path d="M438.907 342.746C436.782 341.78 435.092 340.476 433.885 338.786C432.678 337.096 432.002 335.261 431.905 333.184H439.197C439.342 334.633 440.018 335.84 441.274 336.806C442.529 337.772 444.123 338.255 446.006 338.255C447.889 338.255 449.531 337.868 450.594 337.096C451.704 336.323 452.236 335.357 452.236 334.15C452.236 332.894 451.608 331.929 450.401 331.301C449.193 330.673 447.262 329.997 444.606 329.273C442.046 328.548 439.97 327.872 438.376 327.244C436.782 326.568 435.382 325.554 434.223 324.202C433.064 322.85 432.485 321.063 432.485 318.842C432.485 317.007 433.016 315.365 434.078 313.868C435.141 312.371 436.686 311.163 438.666 310.294C440.646 309.425 442.964 308.99 445.571 308.99C449.435 308.99 452.574 309.956 454.94 311.936C457.306 313.916 458.562 316.572 458.755 319.952H451.704C451.56 318.407 450.98 317.2 449.869 316.282C448.759 315.365 447.262 314.93 445.378 314.93C443.495 314.93 442.094 315.268 441.129 315.992C440.115 316.717 439.632 317.634 439.632 318.793C439.632 319.711 439.97 320.484 440.646 321.063C441.322 321.691 442.094 322.174 443.06 322.512C444.026 322.85 445.427 323.284 447.262 323.864C449.724 324.54 451.753 325.216 453.346 325.892C454.94 326.568 456.292 327.582 457.451 328.886C458.61 330.19 459.19 331.977 459.238 334.15C459.238 336.082 458.707 337.82 457.644 339.365C456.582 340.911 455.037 342.07 453.105 342.939C451.173 343.808 448.855 344.243 446.199 344.243C443.543 344.243 441.129 343.76 439.004 342.794L438.907 342.746Z" fill="white"/>
<path d="M472.908 315.317V334.151C472.908 335.407 473.198 336.324 473.825 336.904C474.405 337.483 475.419 337.725 476.868 337.725H481.214V343.616H475.66C472.473 343.616 470.059 342.892 468.368 341.395C466.678 339.898 465.857 337.483 465.857 334.151V315.317H461.849V309.571H465.857V301.12H472.956V309.571H481.262V315.317H472.956H472.908Z" fill="white"/>
<path d="M496.762 310.487C498.452 309.521 500.48 309.039 502.847 309.039V316.331H501.06C498.307 316.331 496.231 317.055 494.782 318.455C493.382 319.856 492.657 322.27 492.657 325.747V343.663H485.607V309.57H492.657V314.495C493.671 312.757 495.072 311.405 496.762 310.439V310.487Z" fill="white"/>
<path d="M507.288 303.775C506.419 302.906 505.984 301.843 505.984 300.54C505.984 299.236 506.419 298.173 507.288 297.304C508.157 296.435 509.22 296 510.524 296C511.827 296 512.793 296.435 513.662 297.304C514.532 298.173 514.966 299.236 514.966 300.54C514.966 301.843 514.532 302.906 513.662 303.775C512.793 304.644 511.731 305.079 510.524 305.079C509.316 305.079 508.157 304.644 507.288 303.775ZM513.952 309.57V343.615H506.902V309.57H513.952Z" fill="white"/>
<path d="M521.154 317.393C522.554 314.737 524.534 312.709 526.949 311.26C529.411 309.812 532.116 309.087 535.061 309.087C537.717 309.087 540.084 309.618 542.064 310.681C544.044 311.743 545.637 313.047 546.845 314.592V309.667H553.943V343.712H546.845V338.641C545.637 340.235 544.044 341.587 541.967 342.65C539.891 343.712 537.573 344.243 534.917 344.243C531.971 344.243 529.315 343.471 526.9 341.974C524.486 340.477 522.554 338.352 521.105 335.647C519.705 332.943 518.98 329.901 518.98 326.472C518.98 323.043 519.705 320.001 521.105 317.393H521.154ZM545.444 320.484C544.478 318.745 543.223 317.442 541.629 316.524C540.084 315.606 538.394 315.172 536.558 315.172C534.723 315.172 533.033 315.606 531.488 316.476C529.943 317.345 528.639 318.649 527.673 320.387C526.707 322.078 526.224 324.106 526.224 326.472C526.224 328.838 526.707 330.867 527.673 332.653C528.639 334.44 529.894 335.792 531.488 336.71C533.082 337.627 534.772 338.11 536.51 338.11C538.249 338.11 539.987 337.676 541.581 336.758C543.126 335.841 544.43 334.537 545.396 332.75C546.362 331.011 546.845 328.935 546.845 326.617C546.845 324.299 546.362 322.222 545.396 320.484H545.444Z" fill="white"/>
<path d="M568.229 297.884V343.616H561.179V297.884H568.229Z" fill="white"/>
<path d="M616.429 334.874H598.464L595.374 343.663H588.033L603.438 300.636H611.599L627.004 343.663H619.567L616.477 334.874H616.429ZM614.449 329.128L607.446 309.183L600.396 329.128H614.449Z" fill="white"/>
<path d="M638.013 300.684V343.663H630.962V300.684H638.013Z" fill="white"/>
<path d="M697.317 300.684L681.187 343.663H673.026L656.849 300.684H664.382L677.131 336.42L689.928 300.684H697.365H697.317Z" fill="white"/>
<path d="M701.807 303.775C700.938 302.906 700.503 301.843 700.503 300.54C700.503 299.236 700.938 298.173 701.807 297.304C702.676 296.435 703.738 296 705.042 296C706.346 296 707.312 296.435 708.181 297.304C709.05 298.173 709.485 299.236 709.485 300.54C709.485 301.843 709.05 302.906 708.181 303.775C707.312 304.644 706.25 305.079 705.042 305.079C703.835 305.079 702.676 304.644 701.807 303.775ZM708.471 309.57V343.615H701.42V309.57H708.471Z" fill="white"/>
<path d="M720.786 342.746C718.662 341.78 716.971 340.476 715.764 338.786C714.557 337.096 713.881 335.261 713.784 333.184H721.076C721.221 334.633 721.897 335.84 723.153 336.806C724.408 337.772 726.002 338.255 727.885 338.255C729.769 338.255 731.41 337.868 732.473 337.096C733.584 336.323 734.115 335.357 734.115 334.15C734.115 332.894 733.487 331.929 732.28 331.301C731.072 330.673 729.141 329.997 726.485 329.273C723.925 328.548 721.849 327.872 720.255 327.244C718.662 326.568 717.261 325.554 716.102 324.202C714.943 322.85 714.364 321.063 714.364 318.842C714.364 317.007 714.895 315.365 715.957 313.868C717.02 312.371 718.565 311.163 720.545 310.294C722.525 309.425 724.843 308.99 727.451 308.99C731.314 308.99 734.453 309.956 736.819 311.936C739.185 313.916 740.441 316.572 740.634 319.952H733.584C733.439 318.407 732.859 317.2 731.749 316.282C730.638 315.365 729.141 314.93 727.257 314.93C725.374 314.93 723.974 315.268 723.008 315.992C721.994 316.717 721.511 317.634 721.511 318.793C721.511 319.711 721.849 320.484 722.525 321.063C723.201 321.691 723.974 322.174 724.939 322.512C725.905 322.85 727.306 323.284 729.141 323.864C731.604 324.54 733.632 325.216 735.226 325.892C736.819 326.568 738.171 327.582 739.33 328.886C740.489 330.19 741.069 331.977 741.117 334.15C741.117 336.082 740.586 337.82 739.523 339.365C738.461 340.911 736.916 342.07 734.984 342.939C733.052 343.808 730.734 344.243 728.078 344.243C725.422 344.243 723.008 343.76 720.883 342.794L720.786 342.746Z" fill="white"/>
<path d="M746.911 303.775C746.042 302.906 745.607 301.843 745.607 300.54C745.607 299.236 746.042 298.173 746.911 297.304C747.781 296.435 748.843 296 750.147 296C751.451 296 752.417 296.435 753.286 297.304C754.155 298.173 754.59 299.236 754.59 300.54C754.59 301.843 754.155 302.906 753.286 303.775C752.417 304.644 751.354 305.079 750.147 305.079C748.94 305.079 747.781 304.644 746.911 303.775ZM753.576 309.57V343.615H746.525V309.57H753.576Z" fill="white"/>
<path d="M767.001 342.022C764.393 340.573 762.365 338.496 760.868 335.84C759.371 333.184 758.646 330.094 758.646 326.617C758.646 323.14 759.419 320.097 760.916 317.393C762.413 314.689 764.538 312.66 767.146 311.212C769.753 309.763 772.748 309.039 775.983 309.039C779.219 309.039 782.164 309.763 784.82 311.212C787.476 312.66 789.553 314.737 791.05 317.393C792.595 320.049 793.32 323.14 793.32 326.617C793.32 330.094 792.547 333.136 790.953 335.84C789.36 338.545 787.235 340.573 784.579 342.07C781.875 343.519 778.88 344.243 775.645 344.243C772.409 344.243 769.512 343.519 766.953 342.07L767.001 342.022ZM780.812 336.806C782.406 335.937 783.71 334.633 784.675 332.894C785.69 331.156 786.173 329.079 786.173 326.568C786.173 324.057 785.69 321.981 784.772 320.29C783.806 318.6 782.551 317.296 781.005 316.427C779.46 315.558 777.77 315.123 775.935 315.123C774.1 315.123 772.458 315.558 770.912 316.427C769.367 317.296 768.16 318.6 767.242 320.29C766.325 321.981 765.89 324.105 765.89 326.568C765.89 330.238 766.808 333.088 768.691 335.068C770.574 337.048 772.941 338.062 775.79 338.062C777.625 338.062 779.315 337.627 780.909 336.758L780.812 336.806Z" fill="white"/>
<path d="M822.921 310.68C825.046 311.791 826.688 313.433 827.895 315.606C829.103 317.779 829.682 320.435 829.682 323.526V343.615H822.68V324.588C822.68 321.546 821.907 319.18 820.41 317.586C818.865 315.944 816.788 315.123 814.181 315.123C811.573 315.123 809.448 315.944 807.903 317.586C806.357 319.228 805.585 321.546 805.585 324.588V343.615H798.534V309.57H805.585V313.481C806.744 312.081 808.192 310.97 810.028 310.198C811.814 309.425 813.746 309.039 815.726 309.039C818.382 309.039 820.796 309.618 822.921 310.729V310.68Z" fill="white"/>
<path d="M844.991 335.164L837.506 352.211H832.918L837.312 335.164H844.991Z" fill="white"/>
<path d="M151.046 420.354H133.081L129.991 429.143H122.65L138.055 386.115H146.217L161.621 429.143H154.185L151.094 420.354H151.046ZM149.066 414.607L142.063 394.663L135.013 414.607H149.066Z" fill="white"/>
<path d="M195.664 395.049V429.094H188.613V425.086C187.502 426.486 186.054 427.597 184.267 428.418C182.48 429.239 180.548 429.625 178.568 429.625C175.912 429.625 173.498 429.046 171.373 427.935C169.248 426.824 167.558 425.182 166.351 423.009C165.143 420.836 164.516 418.18 164.516 415.09V395.049H171.518V414.027C171.518 417.07 172.291 419.436 173.788 421.029C175.333 422.671 177.409 423.492 180.017 423.492C182.625 423.492 184.75 422.671 186.295 421.029C187.84 419.388 188.613 417.07 188.613 414.027V395.049H195.664Z" fill="white"/>
<path d="M211.024 400.795V419.629C211.024 420.884 211.314 421.802 211.942 422.381C212.521 422.961 213.535 423.202 214.984 423.202H219.33V429.094H213.777C210.589 429.094 208.175 428.369 206.485 426.872C204.794 425.375 203.973 422.961 203.973 419.629V400.795H199.965V395.048H203.973V386.597H211.072V395.048H219.378V400.795H211.072H211.024Z" fill="white"/>
<path d="M229.18 427.5C226.572 426.052 224.544 423.975 223.047 421.319C221.55 418.663 220.825 415.572 220.825 412.095C220.825 408.618 221.598 405.576 223.095 402.872C224.592 400.167 226.717 398.139 229.325 396.69C231.932 395.242 234.927 394.517 238.162 394.517C241.398 394.517 244.343 395.242 246.999 396.69C249.655 398.139 251.732 400.216 253.229 402.872C254.774 405.528 255.499 408.618 255.499 412.095C255.499 415.572 254.726 418.615 253.132 421.319C251.539 424.023 249.414 426.052 246.758 427.549C244.054 428.997 241.059 429.722 237.824 429.722C234.588 429.722 231.691 428.997 229.132 427.549L229.18 427.5ZM242.991 422.285C244.585 421.416 245.889 420.112 246.854 418.373C247.869 416.635 248.351 414.558 248.351 412.047C248.351 409.536 247.869 407.459 246.951 405.769C245.985 404.079 244.73 402.775 243.184 401.906C241.639 401.037 239.949 400.602 238.114 400.602C236.279 400.602 234.637 401.037 233.091 401.906C231.546 402.775 230.339 404.079 229.421 405.769C228.504 407.459 228.069 409.584 228.069 412.047C228.069 415.717 228.987 418.566 230.87 420.546C232.753 422.526 235.12 423.54 237.969 423.54C239.804 423.54 241.494 423.106 243.088 422.237L242.991 422.285Z" fill="white"/>
<path d="M285.098 396.159C287.223 397.27 288.865 398.912 290.072 401.085C291.28 403.258 291.859 405.914 291.859 409.005V429.094H284.857V410.067C284.857 407.025 284.084 404.658 282.587 403.065C281.042 401.423 278.965 400.602 276.358 400.602C273.75 400.602 271.625 401.423 270.08 403.065C268.534 404.707 267.762 407.025 267.762 410.067V429.094H260.711V395.049H267.762V398.96C268.921 397.56 270.369 396.449 272.205 395.676C273.991 394.904 275.923 394.517 277.903 394.517C280.559 394.517 282.973 395.097 285.098 396.208V396.159Z" fill="white"/>
<path d="M305.044 427.5C302.437 426.052 300.408 423.975 298.911 421.319C297.414 418.663 296.69 415.572 296.69 412.095C296.69 408.618 297.463 405.576 298.96 402.872C300.457 400.167 302.581 398.139 305.189 396.69C307.797 395.242 310.791 394.517 314.027 394.517C317.262 394.517 320.208 395.242 322.864 396.69C325.52 398.139 327.596 400.216 329.093 402.872C330.639 405.528 331.363 408.618 331.363 412.095C331.363 415.572 330.59 418.615 328.997 421.319C327.403 424.023 325.278 426.052 322.622 427.549C319.918 428.997 316.924 429.722 313.688 429.722C310.453 429.722 307.555 428.997 304.996 427.549L305.044 427.5ZM318.856 422.285C320.449 421.416 321.753 420.112 322.719 418.373C323.733 416.635 324.216 414.558 324.216 412.047C324.216 409.536 323.733 407.459 322.816 405.769C321.85 404.079 320.594 402.775 319.049 401.906C317.503 401.037 315.813 400.602 313.978 400.602C312.143 400.602 310.501 401.037 308.956 401.906C307.411 402.775 306.203 404.079 305.286 405.769C304.368 407.459 303.934 409.584 303.934 412.047C303.934 415.717 304.851 418.566 306.735 420.546C308.618 422.526 310.984 423.54 313.833 423.54C315.668 423.54 317.359 423.106 318.952 422.237L318.856 422.285Z" fill="white"/>
<path d="M385.066 396.159C387.19 397.27 388.881 398.912 390.088 401.085C391.295 403.258 391.923 405.914 391.923 409.005V429.094H384.921V410.067C384.921 407.025 384.148 404.658 382.651 403.065C381.106 401.423 379.029 400.602 376.421 400.602C373.814 400.602 371.689 401.423 370.144 403.065C368.598 404.707 367.826 407.025 367.826 410.067V429.094H360.823V410.067C360.823 407.025 360.051 404.658 358.554 403.065C357.008 401.423 354.932 400.602 352.324 400.602C349.716 400.602 347.592 401.423 346.046 403.065C344.501 404.707 343.728 407.025 343.728 410.067V429.094H336.678V395.049H343.728V398.96C344.887 397.56 346.336 396.449 348.123 395.676C349.91 394.904 351.793 394.517 353.821 394.517C356.525 394.517 358.988 395.097 361.113 396.256C363.238 397.415 364.88 399.057 366.039 401.278C367.053 399.202 368.695 397.56 370.868 396.352C373.041 395.145 375.407 394.517 377.919 394.517C380.575 394.517 382.989 395.097 385.114 396.208L385.066 396.159Z" fill="white"/>
<path d="M428.044 395.049L407.134 445.127H399.842L406.748 428.563L393.323 395.049H401.194L410.756 421.029L420.704 395.049H427.996H428.044Z" fill="white"/>
<path d="M446.685 389.254C445.815 388.385 445.381 387.322 445.381 386.018C445.381 384.715 445.815 383.652 446.685 382.783C447.554 381.914 448.616 381.479 449.92 381.479C451.224 381.479 452.19 381.914 453.059 382.783C453.928 383.652 454.363 384.715 454.363 386.018C454.363 387.322 453.928 388.385 453.059 389.254C452.19 390.123 451.127 390.558 449.92 390.558C448.713 390.558 447.554 390.123 446.685 389.254ZM453.397 395.049V429.094H446.347V395.049H453.397Z" fill="white"/>
<path d="M485.027 396.159C487.152 397.27 488.794 398.912 490.001 401.085C491.208 403.258 491.788 405.914 491.788 409.005V429.094H484.786V410.067C484.786 407.025 484.013 404.658 482.516 403.065C480.971 401.423 478.894 400.602 476.286 400.602C473.679 400.602 471.554 401.423 470.008 403.065C468.463 404.707 467.69 407.025 467.69 410.067V429.094H460.64V395.049H467.69V398.96C468.849 397.56 470.298 396.449 472.133 395.676C473.92 394.904 475.852 394.517 477.832 394.517C480.488 394.517 482.902 395.097 485.027 396.208V396.159Z" fill="white"/>
<path d="M559.011 386.163V429.142H551.961V399.733L538.874 429.142H533.996L520.813 399.733V429.142H513.762V386.163H521.344L536.411 419.87L551.429 386.163H558.963H559.011Z" fill="white"/>
<path d="M572.915 427.5C570.307 426.052 568.279 423.975 566.782 421.319C565.285 418.663 564.561 415.572 564.561 412.095C564.561 408.618 565.333 405.576 566.83 402.872C568.328 400.167 570.452 398.139 573.06 396.69C575.668 395.242 578.662 394.517 581.897 394.517C585.133 394.517 588.079 395.242 590.735 396.69C593.391 398.139 595.467 400.216 596.964 402.872C598.51 405.528 599.234 408.618 599.234 412.095C599.234 415.572 598.461 418.615 596.868 421.319C595.274 424.023 593.149 426.052 590.493 427.549C587.789 428.997 584.795 429.722 581.559 429.722C578.324 429.722 575.426 428.997 572.867 427.549L572.915 427.5ZM586.727 422.285C588.32 421.416 589.624 420.112 590.59 418.373C591.604 416.635 592.087 414.558 592.087 412.047C592.087 409.536 591.604 407.459 590.686 405.769C589.721 404.079 588.465 402.775 586.92 401.906C585.374 401.037 583.684 400.602 581.849 400.602C580.014 400.602 578.372 401.037 576.827 401.906C575.281 402.775 574.074 404.079 573.157 405.769C572.239 407.459 571.804 409.584 571.804 412.047C571.804 415.717 572.722 418.566 574.605 420.546C576.489 422.526 578.855 423.54 581.704 423.54C583.539 423.54 585.229 423.106 586.823 422.237L586.727 422.285Z" fill="white"/>
<path d="M612.079 400.795V419.629C612.079 420.884 612.369 421.802 612.997 422.381C613.576 422.961 614.59 423.202 616.039 423.202H620.385V429.094H614.832C611.644 429.094 609.23 428.369 607.54 426.872C605.849 425.375 605.028 422.961 605.028 419.629V400.795H601.02V395.048H605.028V386.597H612.127V395.048H620.433V400.795H612.127H612.079Z" fill="white"/>
<path d="M624.782 389.254C623.912 388.385 623.478 387.322 623.478 386.018C623.478 384.715 623.912 383.652 624.782 382.783C625.651 381.914 626.713 381.479 628.017 381.479C629.321 381.479 630.287 381.914 631.156 382.783C632.025 383.652 632.46 384.715 632.46 386.018C632.46 387.322 632.025 388.385 631.156 389.254C630.287 390.123 629.224 390.558 628.017 390.558C626.81 390.558 625.651 390.123 624.782 389.254ZM631.446 395.049V429.094H624.395V395.049H631.446Z" fill="white"/>
<path d="M644.874 427.5C642.267 426.052 640.238 423.975 638.741 421.319C637.244 418.663 636.52 415.572 636.52 412.095C636.52 408.618 637.293 405.576 638.79 402.872C640.287 400.167 642.412 398.139 645.019 396.69C647.627 395.242 650.621 394.517 653.857 394.517C657.092 394.517 660.038 395.242 662.694 396.69C665.35 398.139 667.426 400.216 668.923 402.872C670.469 405.528 671.193 408.618 671.193 412.095C671.193 415.572 670.42 418.615 668.827 421.319C667.233 424.023 665.108 426.052 662.452 427.549C659.748 428.997 656.754 429.722 653.519 429.722C650.283 429.722 647.386 428.997 644.826 427.549L644.874 427.5ZM658.686 422.285C660.279 421.416 661.583 420.112 662.549 418.373C663.563 416.635 664.046 414.558 664.046 412.047C664.046 409.536 663.563 407.459 662.646 405.769C661.68 404.079 660.424 402.775 658.879 401.906C657.334 401.037 655.643 400.602 653.808 400.602C651.973 400.602 650.331 401.037 648.786 401.906C647.241 402.775 646.033 404.079 645.116 405.769C644.198 407.459 643.764 409.584 643.764 412.047C643.764 415.717 644.681 418.566 646.565 420.546C648.448 422.526 650.814 423.54 653.663 423.54C655.498 423.54 657.189 423.106 658.782 422.237L658.686 422.285Z" fill="white"/>
<path d="M700.839 396.159C702.964 397.27 704.606 398.912 705.813 401.085C707.02 403.258 707.6 405.914 707.6 409.005V429.094H700.598V410.067C700.598 407.025 699.825 404.658 698.328 403.065C696.783 401.423 694.706 400.602 692.098 400.602C689.491 400.602 687.366 401.423 685.82 403.065C684.275 404.707 683.502 407.025 683.502 410.067V429.094H676.452V395.049H683.502V398.96C684.661 397.56 686.11 396.449 687.945 395.676C689.732 394.904 691.664 394.517 693.644 394.517C696.3 394.517 698.714 395.097 700.839 396.208V396.159Z" fill="white"/>
<path d="M714.795 428.273C713.925 427.404 713.491 426.342 713.491 425.038C713.491 423.734 713.925 422.671 714.795 421.802C715.664 420.933 716.726 420.498 718.03 420.498C719.334 420.498 720.3 420.933 721.169 421.802C722.038 422.671 722.473 423.734 722.473 425.038C722.473 426.342 722.038 427.404 721.169 428.273C720.3 429.142 719.237 429.577 718.03 429.577C716.823 429.577 715.664 429.142 714.795 428.273Z" fill="white"/>
</svg>
