<svg width="1922" height="176" viewBox="0 0 1922 176" fill="none" xmlns="http://www.w3.org/2000/svg">
<path d="M508.3 129.084V47.259C508.3 36.5862 516.82 27.8539 527.409 27.8539H633.384V1.98047H527.409C502.807 1.98047 482.902 22.1941 482.902 47.1781V129.003C482.902 153.987 502.807 174.2 527.409 174.2H633.384V148.327H527.409C516.899 148.327 508.3 139.676 508.3 128.922V129.084Z" fill="#FF7029"/>
<path d="M543.327 101.028C536.32 101.028 530.588 95.2064 530.588 88.0912C530.588 80.976 536.32 75.1545 543.327 75.1545H633.457V101.028H543.327Z" fill="#FF7029"/>
<path d="M243.323 2.06192V174.282H217.845V2.06192H243.323Z" fill="#FF7029"/>
<path d="M432.659 2.14285L375.412 144.77C372.864 151.158 363.867 151.158 361.319 144.77L304.072 2.14285H275.887L337.115 154.715C348.5 183.095 388.151 183.095 399.537 154.715L460.765 2.14285H432.579H432.659Z" fill="#FF7029"/>
<path d="M803.289 2.14285L760.135 49.7661C754.641 55.8302 745.325 55.8302 739.831 49.7661L696.677 2.14285H662.122L721.041 67.2306C736.567 84.3718 763.24 84.3718 778.766 67.2306L837.685 2.14285H803.129H803.289Z" fill="#FF7029"/>
<path d="M27.9467 174.282L85.8306 30.9268C88.3784 24.6201 97.1367 24.6201 99.6845 30.9268L157.568 174.282H185.436L123.491 20.9817C112.185 -6.99391 73.2506 -6.99391 61.9445 20.9817L0 174.282H27.8671H27.9467Z" fill="#FF7029"/>
<path d="M696.674 174.282L739.908 126.578C745.401 120.514 754.717 120.514 760.211 126.578L803.445 174.282H838L779.001 109.032C763.475 91.8913 736.802 91.8913 721.276 109.032L662.278 174.282H696.833H696.674Z" fill="#FF7029"/>
<path d="M1006.13 56.4816C1003.6 55.3729 1001.64 53.7889 1000.16 51.7826C998.739 49.7762 998 47.4003 998 44.7076H1006.24C1006.39 46.7139 1007.24 48.4035 1008.67 49.7234C1010.09 51.0434 1012.1 51.677 1014.63 51.677C1017.17 51.677 1019.38 51.0434 1020.86 49.7762C1022.34 48.5091 1023.08 46.8195 1023.08 44.8132C1023.08 43.2292 1022.6 41.9621 1021.71 40.9589C1020.81 39.9557 1019.65 39.2165 1018.27 38.6358C1016.9 38.1078 1015 37.527 1012.57 36.8934C1009.51 36.1014 1007.03 35.2567 1005.13 34.4119C1003.23 33.5671 1001.59 32.2999 1000.22 30.5048C998.792 28.7624 998.158 26.3865 998.158 23.4826C998.158 20.7899 998.845 18.4139 1000.16 16.4076C1001.54 14.4012 1003.39 12.8173 1005.87 11.7613C1008.3 10.6526 1011.09 10.1246 1014.31 10.1246C1018.86 10.1246 1022.6 11.2861 1025.51 13.5565C1028.41 15.8268 1030.05 18.9419 1030.37 22.9018H1021.86C1021.71 21.2123 1020.91 19.7339 1019.44 18.5195C1017.96 17.3052 1016 16.6716 1013.58 16.6716C1011.36 16.6716 1009.56 17.2524 1008.19 18.3611C1006.82 19.4699 1006.08 21.1067 1006.08 23.2186C1006.08 24.6442 1006.5 25.8585 1007.4 26.7561C1008.3 27.6537 1009.4 28.3928 1010.72 28.9736C1012.1 29.5016 1013.95 30.0824 1016.27 30.716C1019.38 31.5608 1021.92 32.4055 1023.87 33.3031C1025.82 34.1479 1027.51 35.4678 1028.89 37.263C1030.26 39.0581 1030.95 41.4341 1030.95 44.3908C1030.95 46.7667 1030.31 49.0371 1028.99 51.149C1027.73 53.2609 1025.82 54.9505 1023.4 56.2704C1020.97 57.5904 1018.06 58.224 1014.74 58.224C1011.57 58.224 1008.72 57.696 1006.24 56.5872L1006.13 56.4816Z" fill="#FF7029"/>
<path d="M1071.49 41.9092H1043.03C1043.24 44.8659 1044.35 47.2946 1046.36 49.0897C1048.37 50.8849 1050.79 51.7825 1053.65 51.7825C1057.76 51.7825 1060.72 50.0401 1062.41 46.5554H1070.7C1069.59 49.9873 1067.53 52.7856 1064.58 54.9504C1061.62 57.1151 1057.98 58.2239 1053.59 58.2239C1050.06 58.2239 1046.84 57.4319 1044.04 55.848C1041.24 54.264 1039.02 51.9937 1037.44 49.0897C1035.85 46.1858 1035.06 42.8067 1035.06 39.0052C1035.06 35.2037 1035.85 31.8246 1037.38 28.9207C1038.92 26.0168 1041.13 23.7993 1043.93 22.2153C1046.73 20.6314 1050 19.8394 1053.65 19.8394C1057.29 19.8394 1060.3 20.6314 1063.04 22.1625C1065.79 23.6937 1067.95 25.8584 1069.49 28.6039C1071.02 31.3495 1071.76 34.5702 1071.76 38.1605C1071.76 39.5332 1071.65 40.8004 1071.49 41.9619V41.9092ZM1063.68 35.7317C1063.68 32.8806 1062.62 30.6103 1060.62 28.9207C1058.61 27.2312 1056.18 26.3336 1053.22 26.3336C1050.58 26.3336 1048.31 27.1784 1046.41 28.8679C1044.51 30.5575 1043.4 32.8278 1043.03 35.7317H1063.63H1063.68Z" fill="#FF7029"/>
<path d="M1077.46 28.9738C1078.99 26.0698 1081.16 23.8523 1083.8 22.2684C1086.49 20.6844 1089.44 19.8924 1092.67 19.8924C1095.57 19.8924 1098.16 20.4732 1100.32 21.6348C1102.49 22.7963 1104.23 24.2219 1105.55 25.9115V20.526H1113.31V57.7489H1105.55V52.2051C1104.23 53.9474 1102.49 55.4258 1100.22 56.5874C1097.95 57.7489 1095.41 58.3297 1092.51 58.3297C1089.29 58.3297 1086.38 57.4849 1083.74 55.8482C1081.1 54.2114 1078.99 51.8883 1077.41 48.9316C1075.88 45.9749 1075.08 42.6486 1075.08 38.8999C1075.08 35.1512 1075.88 31.8249 1077.41 28.9738H1077.46ZM1104.02 32.3529C1102.96 30.4521 1101.59 29.0266 1099.85 28.0234C1098.16 27.0202 1096.31 26.545 1094.3 26.545C1092.3 26.545 1090.45 27.0202 1088.76 27.9706C1087.07 28.921 1085.64 30.3465 1084.59 32.2473C1083.53 34.0952 1083 36.3128 1083 38.8999C1083 41.487 1083.53 43.7045 1084.59 45.6581C1085.64 47.6116 1087.02 49.09 1088.76 50.0932C1090.5 51.0963 1092.35 51.6243 1094.25 51.6243C1096.15 51.6243 1098.05 51.1491 1099.79 50.146C1101.48 49.1428 1102.91 47.7172 1103.96 45.7637C1105.02 43.8629 1105.55 41.5926 1105.55 39.0583C1105.55 36.5239 1105.02 34.2536 1103.96 32.3529H1104.02Z" fill="#FF7029"/>
<path d="M1174.24 21.6345C1176.57 22.8489 1178.41 24.644 1179.73 27.02C1181.05 29.3959 1181.74 32.2998 1181.74 35.6789V57.6431H1174.09V36.8405C1174.09 33.5142 1173.24 30.9271 1171.6 29.1847C1169.91 27.3896 1167.64 26.492 1164.79 26.492C1161.94 26.492 1159.62 27.3896 1157.93 29.1847C1156.24 30.9799 1155.39 33.5142 1155.39 36.8405V57.6431H1147.74V36.8405C1147.74 33.5142 1146.89 30.9271 1145.26 29.1847C1143.57 27.3896 1141.3 26.492 1138.45 26.492C1135.6 26.492 1133.27 27.3896 1131.58 29.1847C1129.89 30.9799 1129.05 33.5142 1129.05 36.8405V57.6431H1121.34V20.4202H1129.05V24.6968C1130.32 23.1657 1131.9 21.9513 1133.85 21.1065C1135.81 20.2618 1137.87 19.8394 1140.08 19.8394C1143.04 19.8394 1145.73 20.473 1148.06 21.7401C1150.38 23.0073 1152.17 24.8024 1153.44 27.2312C1154.55 24.9608 1156.35 23.1657 1158.72 21.8457C1161.1 20.5258 1163.68 19.8394 1166.43 19.8394C1169.33 19.8394 1171.97 20.473 1174.3 21.6873L1174.24 21.6345Z" fill="#FF7029"/>
<path d="M1197.05 7.64355V57.6437H1189.34V7.64355H1197.05Z" fill="#FF7029"/>
<path d="M1239.23 41.9092H1210.78C1210.99 44.8659 1212.1 47.2946 1214.1 49.0897C1216.11 50.8849 1218.54 51.7825 1221.39 51.7825C1225.51 51.7825 1228.46 50.0401 1230.15 46.5554H1238.44C1237.33 49.9873 1235.28 52.7856 1232.32 54.9504C1229.36 57.1151 1225.72 58.2239 1221.34 58.2239C1217.8 58.2239 1214.58 57.4319 1211.78 55.848C1208.98 54.264 1206.76 51.9937 1205.18 49.0897C1203.6 46.1858 1202.8 42.8067 1202.8 39.0052C1202.8 35.2037 1203.6 31.8246 1205.13 28.9207C1206.66 26.0168 1208.88 23.7993 1211.67 22.2153C1214.47 20.6314 1217.75 19.8394 1221.39 19.8394C1225.03 19.8394 1228.04 20.6314 1230.79 22.1625C1233.53 23.6937 1235.7 25.8584 1237.23 28.6039C1238.76 31.3495 1239.5 34.5702 1239.5 38.1605C1239.5 39.5332 1239.39 40.8004 1239.23 41.9619V41.9092ZM1231.42 35.7317C1231.42 32.8806 1230.36 30.6103 1228.36 28.9207C1226.35 27.2312 1223.92 26.3336 1220.97 26.3336C1218.33 26.3336 1216.06 27.1784 1214.16 28.8679C1212.25 30.5575 1211.15 32.8278 1210.78 35.7317H1231.37H1231.42Z" fill="#FF7029"/>
<path d="M1250.48 56.6926C1248.16 55.6367 1246.31 54.2111 1244.99 52.3632C1243.67 50.5152 1242.93 48.5089 1242.83 46.2385H1250.8C1250.96 47.8225 1251.7 49.1424 1253.07 50.1984C1254.44 51.2544 1256.19 51.7824 1258.25 51.7824C1260.3 51.7824 1262.1 51.36 1263.26 50.5152C1264.48 49.6704 1265.06 48.6145 1265.06 47.2945C1265.06 45.9217 1264.37 44.8658 1263.05 44.1794C1261.73 43.493 1259.62 42.7538 1256.71 41.9619C1253.92 41.1699 1251.65 40.4307 1249.9 39.7443C1248.16 39.0051 1246.63 37.8964 1245.36 36.418C1244.1 34.9397 1243.46 32.9861 1243.46 30.5574C1243.46 28.551 1244.04 26.7559 1245.2 25.1191C1246.37 23.4824 1248.06 22.1624 1250.22 21.2121C1252.38 20.2617 1254.92 19.7865 1257.77 19.7865C1261.99 19.7865 1265.43 20.8425 1268.01 23.0072C1270.6 25.1719 1271.97 28.0759 1272.18 31.7718H1264.48C1264.32 30.0822 1263.68 28.7622 1262.47 27.7591C1261.26 26.7559 1259.62 26.2807 1257.56 26.2807C1255.5 26.2807 1253.97 26.6503 1252.91 27.4423C1251.8 28.2343 1251.28 29.2374 1251.28 30.5046C1251.28 31.5078 1251.65 32.3525 1252.38 32.9861C1253.12 33.6725 1253.97 34.2005 1255.02 34.5701C1256.08 34.9397 1257.61 35.4148 1259.62 36.0484C1262.31 36.7876 1264.53 37.5268 1266.27 38.266C1268.01 39.0051 1269.49 40.1139 1270.76 41.5395C1272.03 42.965 1272.66 44.9186 1272.71 47.2945C1272.71 49.4064 1272.13 51.3072 1270.97 52.9967C1269.81 54.6863 1268.12 55.9535 1266.01 56.9038C1263.89 57.8542 1261.36 58.3294 1258.46 58.3294C1255.55 58.3294 1252.91 57.8014 1250.59 56.7454L1250.48 56.6926Z" fill="#FF7029"/>
<path d="M1284.33 56.6926C1282.01 55.6367 1280.16 54.2111 1278.84 52.3632C1277.52 50.5152 1276.78 48.5089 1276.67 46.2385H1284.65C1284.8 47.8225 1285.54 49.1424 1286.92 50.1984C1288.29 51.2544 1290.03 51.7824 1292.09 51.7824C1294.15 51.7824 1295.94 51.36 1297.11 50.5152C1298.32 49.6704 1298.9 48.6145 1298.9 47.2945C1298.9 45.9217 1298.22 44.8658 1296.9 44.1794C1295.58 43.493 1293.46 42.7538 1290.56 41.9619C1287.76 41.1699 1285.49 40.4307 1283.75 39.7443C1282.01 39.0051 1280.47 37.8964 1279.21 36.418C1277.94 34.9397 1277.31 32.9861 1277.31 30.5574C1277.31 28.551 1277.89 26.7559 1279.05 25.1191C1280.21 23.4824 1281.9 22.1624 1284.07 21.2121C1286.23 20.2617 1288.76 19.7865 1291.62 19.7865C1295.84 19.7865 1299.27 20.8425 1301.86 23.0072C1304.45 25.1719 1305.82 28.0759 1306.03 31.7718H1298.32C1298.16 30.0822 1297.53 28.7622 1296.31 27.7591C1295.1 26.7559 1293.46 26.2807 1291.4 26.2807C1289.34 26.2807 1287.81 26.6503 1286.76 27.4423C1285.65 28.2343 1285.12 29.2374 1285.12 30.5046C1285.12 31.5078 1285.49 32.3525 1286.23 32.9861C1286.97 33.6725 1287.81 34.2005 1288.87 34.5701C1289.93 34.9397 1291.46 35.4148 1293.46 36.0484C1296.16 36.7876 1298.37 37.5268 1300.12 38.266C1301.86 39.0051 1303.34 40.1139 1304.6 41.5395C1305.87 42.965 1306.5 44.9186 1306.56 47.2945C1306.56 49.4064 1305.98 51.3072 1304.81 52.9967C1303.65 54.6863 1301.96 55.9535 1299.85 56.9038C1297.74 57.8542 1295.21 58.3294 1292.3 58.3294C1289.4 58.3294 1286.76 57.8014 1284.43 56.7454L1284.33 56.6926Z" fill="#FF7029"/>
<path d="M1336.65 10.7051V57.6957H1328.94V10.7051H1336.65Z" fill="#FF7029"/>
<path d="M1371.6 21.6345C1373.93 22.8489 1375.72 24.644 1377.04 27.02C1378.36 29.3959 1379 32.2998 1379 35.6789V57.6431H1371.34V36.8405C1371.34 33.5142 1370.49 30.9271 1368.86 29.1847C1367.17 27.3896 1364.9 26.492 1362.05 26.492C1359.2 26.492 1356.87 27.3896 1355.18 29.1847C1353.49 30.9799 1352.65 33.5142 1352.65 36.8405V57.6431H1344.94V20.4202H1352.65V24.6968C1353.92 23.1657 1355.5 21.9513 1357.51 21.1065C1359.46 20.2618 1361.57 19.8394 1363.74 19.8394C1366.64 19.8394 1369.28 20.473 1371.6 21.6873V21.6345Z" fill="#FF7029"/>
<path d="M1386.6 28.9741C1388.13 26.0702 1390.29 23.8527 1392.93 22.2687C1395.63 20.6848 1398.58 19.8928 1401.91 19.8928C1404.34 19.8928 1406.77 20.4208 1409.09 21.4768C1411.47 22.5327 1413.31 23.9583 1414.74 25.7006V7.64355H1422.5V57.6437H1414.74V52.0471C1413.47 53.8422 1411.73 55.3206 1409.51 56.4822C1407.29 57.6437 1404.71 58.2245 1401.86 58.2245C1398.64 58.2245 1395.63 57.3797 1392.99 55.743C1390.35 54.1062 1388.18 51.7831 1386.65 48.8264C1385.12 45.8697 1384.33 42.5434 1384.33 38.7947C1384.33 35.046 1385.12 31.7197 1386.65 28.8685L1386.6 28.9741ZM1413.16 32.3532C1412.1 30.4525 1410.73 29.0269 1408.98 28.0238C1407.29 27.0206 1405.45 26.5454 1403.44 26.5454C1401.43 26.5454 1399.59 27.0206 1397.9 27.971C1396.21 28.9213 1394.78 30.3469 1393.73 32.2476C1392.67 34.0956 1392.14 36.3131 1392.14 38.9003C1392.14 41.4874 1392.67 43.7049 1393.73 45.6585C1394.78 47.612 1396.15 49.0904 1397.9 50.0935C1399.64 51.0967 1401.49 51.6247 1403.39 51.6247C1405.29 51.6247 1407.19 51.1495 1408.93 50.1463C1410.62 49.1432 1412.05 47.7176 1413.1 45.7641C1414.16 43.8633 1414.69 41.593 1414.69 39.0587C1414.69 36.5243 1414.16 34.254 1413.1 32.3532H1413.16Z" fill="#FF7029"/>
<path d="M1464.16 20.4207V57.6436H1456.45V53.2613C1455.24 54.7925 1453.65 56.0068 1451.7 56.9044C1449.74 57.802 1447.63 58.2244 1445.47 58.2244C1442.56 58.2244 1439.92 57.5908 1437.6 56.3764C1435.28 55.1621 1433.43 53.3669 1432.11 50.991C1430.79 48.615 1430.1 45.7111 1430.1 42.332V20.4207H1437.76V41.1705C1437.76 44.4968 1438.6 47.0839 1440.24 48.8262C1441.93 50.6214 1444.2 51.519 1447.05 51.519C1449.9 51.519 1452.23 50.6214 1453.92 48.8262C1455.61 47.0311 1456.45 44.4968 1456.45 41.1705V20.4207H1464.16Z" fill="#FF7029"/>
<path d="M1477.73 56.6926C1475.4 55.6367 1473.56 54.2111 1472.24 52.3632C1470.92 50.5152 1470.18 48.5089 1470.07 46.2385H1478.04C1478.2 47.8225 1478.94 49.1424 1480.31 50.1984C1481.69 51.2544 1483.43 51.7824 1485.49 51.7824C1487.55 51.7824 1489.34 51.36 1490.5 50.5152C1491.72 49.6704 1492.3 48.6145 1492.3 47.2945C1492.3 45.9217 1491.61 44.8658 1490.29 44.1794C1488.97 43.493 1486.86 42.7538 1483.96 41.9619C1481.16 41.1699 1478.89 40.4307 1477.15 39.7443C1475.4 39.0051 1473.87 37.8964 1472.61 36.418C1471.34 34.9397 1470.71 32.9861 1470.71 30.5574C1470.71 28.551 1471.29 26.7559 1472.45 25.1191C1473.61 23.4824 1475.3 22.1624 1477.46 21.2121C1479.63 20.2617 1482.16 19.7865 1485.01 19.7865C1489.24 19.7865 1492.67 20.8425 1495.26 23.0072C1497.84 25.1719 1499.22 28.0759 1499.43 31.7718H1491.72C1491.56 30.0822 1490.93 28.7622 1489.71 27.7591C1488.5 26.7559 1486.86 26.2807 1484.8 26.2807C1482.74 26.2807 1481.21 26.6503 1480.16 27.4423C1479.05 28.2343 1478.52 29.2374 1478.52 30.5046C1478.52 31.5078 1478.89 32.3525 1479.63 32.9861C1480.37 33.6725 1481.21 34.2005 1482.27 34.5701C1483.32 34.9397 1484.86 35.4148 1486.86 36.0484C1489.55 36.7876 1491.77 37.5268 1493.51 38.266C1495.26 39.0051 1496.73 40.1139 1498 41.5395C1499.27 42.965 1499.9 44.9186 1499.96 47.2945C1499.96 49.4064 1499.37 51.3072 1498.21 52.9967C1497.05 54.6863 1495.36 55.9535 1493.25 56.9038C1491.14 57.8542 1488.6 58.3294 1485.7 58.3294C1482.8 58.3294 1480.16 57.8014 1477.83 56.7454L1477.73 56.6926Z" fill="#FF7029"/>
<path d="M1514.9 26.7042V47.2956C1514.9 48.6684 1515.22 49.6715 1515.9 50.3051C1516.54 50.9387 1517.65 51.2027 1519.23 51.2027H1523.98V57.6441H1517.91C1514.43 57.6441 1511.79 56.8521 1509.94 55.2154C1508.09 53.5786 1507.19 50.9387 1507.19 47.2956V26.7042H1502.81V20.4212H1507.19V11.1814H1514.95V20.4212H1524.04V26.7042H1514.95H1514.9Z" fill="#FF7029"/>
<path d="M1540.98 21.4233C1542.83 20.3674 1545.05 19.8394 1547.63 19.8394V27.812H1545.68C1542.67 27.812 1540.4 28.6039 1538.82 30.1351C1537.29 31.6662 1536.49 34.3062 1536.49 38.1077V57.6959H1528.79V20.4202H1536.49V25.8056C1537.6 23.9049 1539.13 22.4265 1540.98 21.3705V21.4233Z" fill="#FF7029"/>
<path d="M1552.49 14.0845C1551.54 13.1341 1551.06 11.9726 1551.06 10.547C1551.06 9.12145 1551.54 7.95989 1552.49 7.00951C1553.44 6.05914 1554.6 5.58395 1556.03 5.58395C1557.45 5.58395 1558.51 6.05914 1559.46 7.00951C1560.41 7.95989 1560.88 9.12145 1560.88 10.547C1560.88 11.9726 1560.41 13.1341 1559.46 14.0845C1558.51 15.0349 1557.35 15.5101 1556.03 15.5101C1554.71 15.5101 1553.44 15.0349 1552.49 14.0845ZM1559.78 20.4203V57.6433H1552.07V20.4203H1559.78Z" fill="#FF7029"/>
<path d="M1567.65 28.9738C1569.18 26.0698 1571.35 23.8523 1573.99 22.2684C1576.68 20.6844 1579.64 19.8924 1582.86 19.8924C1585.76 19.8924 1588.35 20.4732 1590.51 21.6348C1592.68 22.7963 1594.42 24.2219 1595.74 25.9115V20.526H1603.5V57.7489H1595.74V52.2051C1594.42 53.9474 1592.68 55.4258 1590.41 56.5874C1588.14 57.7489 1585.6 58.3297 1582.7 58.3297C1579.48 58.3297 1576.57 57.4849 1573.93 55.8482C1571.29 54.2114 1569.18 51.8883 1567.6 48.9316C1566.07 45.9749 1565.27 42.6486 1565.27 38.8999C1565.27 35.1512 1566.07 31.8249 1567.6 28.9738H1567.65ZM1594.21 32.3529C1593.15 30.4521 1591.78 29.0266 1590.04 28.0234C1588.35 27.0202 1586.5 26.545 1584.49 26.545C1582.49 26.545 1580.64 27.0202 1578.95 27.9706C1577.26 28.921 1575.83 30.3465 1574.78 32.2473C1573.72 34.0952 1573.19 36.3128 1573.19 38.8999C1573.19 41.487 1573.72 43.7045 1574.78 45.6581C1575.83 47.6116 1577.21 49.09 1578.95 50.0932C1580.69 51.0963 1582.54 51.6243 1584.44 51.6243C1586.34 51.6243 1588.24 51.1491 1589.98 50.146C1591.67 49.1428 1593.1 47.7172 1594.15 45.7637C1595.21 43.8629 1595.74 41.5926 1595.74 39.0583C1595.74 36.5239 1595.21 34.2536 1594.15 32.3529H1594.21Z" fill="#FF7029"/>
<path d="M1619.12 7.64355V57.6437H1611.41V7.64355H1619.12Z" fill="#FF7029"/>
<path d="M1671.82 48.0863H1652.18L1648.8 57.6956H1640.77L1657.61 10.6522H1666.54L1683.38 57.6956H1675.25L1671.87 48.0863H1671.82ZM1669.65 41.8033L1662 19.9975L1654.29 41.8033H1669.65Z" fill="#FF7029"/>
<path d="M1695.42 10.7051V57.6957H1687.71V10.7051H1695.42Z" fill="#FF7029"/>
<path d="M1760.25 10.7051L1742.62 57.6957H1733.7L1716.01 10.7051H1724.25L1738.19 49.776L1752.18 10.7051H1760.31H1760.25Z" fill="#FF7029"/>
<path d="M1765.16 14.0845C1764.21 13.1341 1763.74 11.9726 1763.74 10.547C1763.74 9.12145 1764.21 7.95989 1765.16 7.00951C1766.11 6.05914 1767.28 5.58395 1768.7 5.58395C1770.13 5.58395 1771.18 6.05914 1772.13 7.00951C1773.08 7.95989 1773.56 9.12145 1773.56 10.547C1773.56 11.9726 1773.08 13.1341 1772.13 14.0845C1771.18 15.0349 1770.02 15.5101 1768.7 15.5101C1767.38 15.5101 1766.11 15.0349 1765.16 14.0845ZM1772.45 20.4203V57.6433H1764.74V20.4203H1772.45Z" fill="#FF7029"/>
<path d="M1785.92 56.6926C1783.59 55.6367 1781.74 54.2111 1780.42 52.3632C1779.1 50.5152 1778.36 48.5089 1778.26 46.2385H1786.23C1786.39 47.8225 1787.13 49.1424 1788.5 50.1984C1789.87 51.2544 1791.62 51.7824 1793.68 51.7824C1795.74 51.7824 1797.53 51.36 1798.69 50.5152C1799.91 49.6704 1800.49 48.6145 1800.49 47.2945C1800.49 45.9217 1799.8 44.8658 1798.48 44.1794C1797.16 43.493 1795.05 42.7538 1792.15 41.9619C1789.35 41.1699 1787.08 40.4307 1785.33 39.7443C1783.59 39.0051 1782.06 37.8964 1780.79 36.418C1779.53 34.9397 1778.89 32.9861 1778.89 30.5574C1778.89 28.551 1779.47 26.7559 1780.64 25.1191C1781.8 23.4824 1783.49 22.1624 1785.65 21.2121C1787.82 20.2617 1790.35 19.7865 1793.2 19.7865C1797.43 19.7865 1800.86 20.8425 1803.44 23.0072C1806.03 25.1719 1807.4 28.0759 1807.62 31.7718H1799.91C1799.75 30.0822 1799.11 28.7622 1797.9 27.7591C1796.69 26.7559 1795.05 26.2807 1792.99 26.2807C1790.93 26.2807 1789.4 26.6503 1788.34 27.4423C1787.24 28.2343 1786.71 29.2374 1786.71 30.5046C1786.71 31.5078 1787.08 32.3525 1787.82 32.9861C1788.55 33.6725 1789.4 34.2005 1790.46 34.5701C1791.51 34.9397 1793.04 35.4148 1795.05 36.0484C1797.74 36.7876 1799.96 37.5268 1801.7 38.266C1803.44 39.0051 1804.92 40.1139 1806.19 41.5395C1807.46 42.965 1808.09 44.9186 1808.14 47.2945C1808.14 49.4064 1807.56 51.3072 1806.4 52.9967C1805.24 54.6863 1803.55 55.9535 1801.44 56.9038C1799.33 57.8542 1796.79 58.3294 1793.89 58.3294C1790.98 58.3294 1788.34 57.8014 1786.02 56.7454L1785.92 56.6926Z" fill="#FF7029"/>
<path d="M1814.48 14.0845C1813.53 13.1341 1813.05 11.9726 1813.05 10.547C1813.05 9.12145 1813.53 7.95989 1814.48 7.00951C1815.43 6.05914 1816.59 5.58395 1818.02 5.58395C1819.44 5.58395 1820.5 6.05914 1821.45 7.00951C1822.4 7.95989 1822.87 9.12145 1822.87 10.547C1822.87 11.9726 1822.4 13.1341 1821.45 14.0845C1820.5 15.0349 1819.34 15.5101 1818.02 15.5101C1816.7 15.5101 1815.43 15.0349 1814.48 14.0845ZM1821.76 20.4203V57.6433H1814.06V20.4203H1821.76Z" fill="#FF7029"/>
<path d="M1836.44 55.9008C1833.59 54.3168 1831.37 52.0465 1829.74 49.1425C1828.1 46.2386 1827.31 42.8595 1827.31 39.058C1827.31 35.2565 1828.15 31.9302 1829.79 28.9735C1831.43 26.0168 1833.75 23.7993 1836.6 22.2153C1839.45 20.6314 1842.73 19.8394 1846.26 19.8394C1849.8 19.8394 1853.02 20.6314 1855.93 22.2153C1858.83 23.7993 1861.1 26.0696 1862.74 28.9735C1864.43 31.8774 1865.22 35.2565 1865.22 39.058C1865.22 42.8595 1864.37 46.1858 1862.63 49.1425C1860.89 52.0993 1858.57 54.3168 1855.66 55.9535C1852.7 57.5375 1849.43 58.3295 1845.89 58.3295C1842.36 58.3295 1839.19 57.5375 1836.39 55.9535L1836.44 55.9008ZM1851.54 50.1985C1853.29 49.2481 1854.71 47.8226 1855.77 45.9218C1856.88 44.0211 1857.4 41.7508 1857.4 39.0052C1857.4 36.2597 1856.88 33.9894 1855.87 32.1414C1854.82 30.2935 1853.44 28.8679 1851.75 27.9176C1850.06 26.9672 1848.22 26.492 1846.21 26.492C1844.2 26.492 1842.41 26.9672 1840.72 27.9176C1839.03 28.8679 1837.71 30.2935 1836.71 32.1414C1835.7 33.9894 1835.23 36.3125 1835.23 39.0052C1835.23 43.0179 1836.23 46.133 1838.29 48.2978C1840.35 50.4625 1842.94 51.5713 1846.05 51.5713C1848.06 51.5713 1849.91 51.0961 1851.65 50.1457L1851.54 50.1985Z" fill="#FF7029"/>
<path d="M1897.58 21.6345C1899.91 22.8489 1901.7 24.644 1903.02 27.02C1904.34 29.3959 1904.97 32.2998 1904.97 35.6789V57.6431H1897.32V36.8405C1897.32 33.5142 1896.47 30.9271 1894.84 29.1847C1893.15 27.3896 1890.88 26.492 1888.03 26.492C1885.17 26.492 1882.85 27.3896 1881.16 29.1847C1879.47 30.9799 1878.63 33.5142 1878.63 36.8405V57.6431H1870.92V20.4202H1878.63V24.6968C1879.89 23.1657 1881.48 21.9513 1883.49 21.1065C1885.44 20.2618 1887.55 19.8394 1889.72 19.8394C1892.62 19.8394 1895.26 20.473 1897.58 21.6873V21.6345Z" fill="#FF7029"/>
<path d="M1921.71 48.4033L1913.53 67.0411H1908.51L1913.32 48.4033H1921.71Z" fill="#FF7029"/>
<path d="M1029.05 142.647H1009.4L1006.03 152.257H998L1014.84 105.213H1023.77L1040.61 152.257H1032.48L1029.1 142.647H1029.05ZM1026.88 136.364L1019.22 114.558L1011.52 136.364H1026.88Z" fill="#FF7029"/>
<path d="M1077.83 114.981V152.203H1070.12V147.821C1068.9 149.352 1067.32 150.567 1065.37 151.464C1063.41 152.362 1061.3 152.784 1059.14 152.784C1056.23 152.784 1053.59 152.151 1051.27 150.936C1048.95 149.722 1047.1 147.927 1045.78 145.551C1044.46 143.175 1043.77 140.271 1043.77 136.892V114.981H1051.43V135.73C1051.43 139.057 1052.27 141.644 1053.91 143.386C1055.6 145.181 1057.87 146.079 1060.72 146.079C1063.57 146.079 1065.9 145.181 1067.58 143.386C1069.27 141.591 1070.12 139.057 1070.12 135.73V114.981H1077.83Z" fill="#FF7029"/>
<path d="M1094.62 121.263V141.854C1094.62 143.227 1094.94 144.23 1095.63 144.864C1096.26 145.497 1097.37 145.761 1098.95 145.761H1103.7V152.203H1097.63C1094.15 152.203 1091.51 151.411 1089.66 149.774C1087.81 148.137 1086.91 145.497 1086.91 141.854V121.263H1082.53V114.98H1086.91V105.74H1094.67V114.98H1103.76V121.263H1094.67H1094.62Z" fill="#FF7029"/>
<path d="M1114.47 150.461C1111.62 148.877 1109.4 146.607 1107.77 143.703C1106.13 140.799 1105.34 137.42 1105.34 133.618C1105.34 129.817 1106.18 126.49 1107.82 123.534C1109.46 120.577 1111.78 118.359 1114.63 116.775C1117.48 115.191 1120.76 114.399 1124.29 114.399C1127.83 114.399 1131.05 115.191 1133.95 116.775C1136.86 118.359 1139.13 120.63 1140.77 123.534C1142.46 126.438 1143.25 129.817 1143.25 133.618C1143.25 137.42 1142.4 140.746 1140.66 143.703C1138.92 146.659 1136.59 148.877 1133.69 150.514C1130.73 152.098 1127.46 152.89 1123.92 152.89C1120.39 152.89 1117.22 152.098 1114.42 150.514L1114.47 150.461ZM1129.57 144.759C1131.31 143.808 1132.74 142.383 1133.8 140.482C1134.91 138.581 1135.43 136.311 1135.43 133.565C1135.43 130.82 1134.91 128.549 1133.9 126.702C1132.85 124.854 1131.47 123.428 1129.78 122.478C1128.09 121.527 1126.25 121.052 1124.24 121.052C1122.23 121.052 1120.44 121.527 1118.75 122.478C1117.06 123.428 1115.74 124.854 1114.74 126.702C1113.73 128.549 1113.26 130.873 1113.26 133.565C1113.26 137.578 1114.26 140.693 1116.32 142.858C1118.38 145.023 1120.97 146.131 1124.08 146.131C1126.09 146.131 1127.94 145.656 1129.68 144.706L1129.57 144.759Z" fill="#FF7029"/>
<path d="M1175.61 116.195C1177.93 117.409 1179.73 119.204 1181.05 121.58C1182.37 123.956 1183 126.86 1183 130.239V152.203H1175.35V131.401C1175.35 128.074 1174.5 125.487 1172.86 123.745C1171.17 121.95 1168.9 121.052 1166.05 121.052C1163.2 121.052 1160.88 121.95 1159.19 123.745C1157.5 125.54 1156.66 128.074 1156.66 131.401V152.203H1148.95V114.98H1156.66V119.257C1157.92 117.726 1159.51 116.511 1161.51 115.667C1163.47 114.822 1165.58 114.399 1167.74 114.399C1170.65 114.399 1173.29 115.033 1175.61 116.247V116.195Z" fill="#FF7029"/>
<path d="M1197.42 150.461C1194.57 148.877 1192.35 146.607 1190.71 143.703C1189.08 140.799 1188.28 137.42 1188.28 133.618C1188.28 129.817 1189.13 126.49 1190.76 123.534C1192.4 120.577 1194.72 118.359 1197.58 116.775C1200.43 115.191 1203.7 114.399 1207.24 114.399C1210.78 114.399 1214 115.191 1216.9 116.775C1219.8 118.359 1222.07 120.63 1223.71 123.534C1225.4 126.438 1226.19 129.817 1226.19 133.618C1226.19 137.42 1225.35 140.746 1223.61 143.703C1221.86 146.659 1219.54 148.877 1216.64 150.514C1213.68 152.098 1210.41 152.89 1206.87 152.89C1203.33 152.89 1200.16 152.098 1197.36 150.514L1197.42 150.461ZM1212.52 144.759C1214.26 143.808 1215.69 142.383 1216.74 140.482C1217.85 138.581 1218.38 136.311 1218.38 133.565C1218.38 130.82 1217.85 128.549 1216.85 126.702C1215.79 124.854 1214.42 123.428 1212.73 122.478C1211.04 121.527 1209.19 121.052 1207.19 121.052C1205.18 121.052 1203.38 121.527 1201.69 122.478C1200 123.428 1198.68 124.854 1197.68 126.702C1196.68 128.549 1196.2 130.873 1196.2 133.565C1196.2 137.578 1197.21 140.693 1199.27 142.858C1201.32 145.023 1203.91 146.131 1207.03 146.131C1209.03 146.131 1210.88 145.656 1212.62 144.706L1212.52 144.759Z" fill="#FF7029"/>
<path d="M1284.91 116.195C1287.23 117.409 1289.08 119.204 1290.4 121.58C1291.72 123.956 1292.4 126.86 1292.4 130.239V152.203H1284.75V131.401C1284.75 128.074 1283.9 125.487 1282.27 123.745C1280.58 121.95 1278.31 121.052 1275.46 121.052C1272.61 121.052 1270.28 121.95 1268.59 123.745C1266.9 125.54 1266.06 128.074 1266.06 131.401V152.203H1258.4V131.401C1258.4 128.074 1257.56 125.487 1255.92 123.745C1254.23 121.95 1251.96 121.052 1249.11 121.052C1246.26 121.052 1243.94 121.95 1242.25 123.745C1240.56 125.54 1239.71 128.074 1239.71 131.401V152.203H1232V114.98H1239.71V119.257C1240.98 117.726 1242.56 116.511 1244.52 115.667C1246.47 114.822 1248.53 114.399 1250.75 114.399C1253.7 114.399 1256.4 115.033 1258.72 116.3C1261.04 117.567 1262.84 119.363 1264.1 121.791C1265.21 119.521 1267.01 117.726 1269.38 116.406C1271.76 115.086 1274.35 114.399 1277.09 114.399C1280 114.399 1282.64 115.033 1284.96 116.247L1284.91 116.195Z" fill="#FF7029"/>
<path d="M1331.9 114.981L1309.04 169.733H1301.06L1308.61 151.623L1293.93 114.981H1302.54L1313 143.386L1323.87 114.981H1331.84H1331.9Z" fill="#FF7029"/>
<path d="M1352.28 108.645C1351.33 107.694 1350.85 106.533 1350.85 105.107C1350.85 103.682 1351.33 102.52 1352.28 101.57C1353.23 100.619 1354.39 100.144 1355.82 100.144C1357.24 100.144 1358.3 100.619 1359.25 101.57C1360.2 102.52 1360.67 103.682 1360.67 105.107C1360.67 106.533 1360.2 107.694 1359.25 108.645C1358.3 109.595 1357.14 110.07 1355.82 110.07C1354.5 110.07 1353.23 109.595 1352.28 108.645ZM1359.62 114.981V152.204H1351.91V114.981H1359.62Z" fill="#FF7029"/>
<path d="M1394.2 116.195C1396.52 117.409 1398.32 119.204 1399.64 121.58C1400.96 123.956 1401.59 126.86 1401.59 130.239V152.203H1393.93V131.401C1393.93 128.074 1393.09 125.487 1391.45 123.745C1389.76 121.95 1387.49 121.052 1384.64 121.052C1381.79 121.052 1379.47 121.95 1377.78 123.745C1376.09 125.54 1375.24 128.074 1375.24 131.401V152.203H1367.54V114.98H1375.24V119.257C1376.51 117.726 1378.09 116.511 1380.1 115.667C1382.05 114.822 1384.17 114.399 1386.33 114.399C1389.24 114.399 1391.88 115.033 1394.2 116.247V116.195Z" fill="#FF7029"/>
<path d="M1475.09 105.266V152.256H1467.38V120.102L1453.07 152.256H1447.74L1433.32 120.102V152.256H1425.62V105.266H1433.91L1450.38 142.119L1466.8 105.266H1475.04H1475.09Z" fill="#FF7029"/>
<path d="M1490.29 150.461C1487.44 148.877 1485.22 146.607 1483.58 143.703C1481.95 140.799 1481.16 137.42 1481.16 133.618C1481.16 129.817 1482 126.49 1483.64 123.534C1485.27 120.577 1487.6 118.359 1490.45 116.775C1493.3 115.191 1496.57 114.399 1500.11 114.399C1503.65 114.399 1506.87 115.191 1509.77 116.775C1512.68 118.359 1514.95 120.63 1516.58 123.534C1518.27 126.438 1519.06 129.817 1519.06 133.618C1519.06 137.42 1518.22 140.746 1516.48 143.703C1514.74 146.659 1512.41 148.877 1509.51 150.514C1506.55 152.098 1503.28 152.89 1499.74 152.89C1496.2 152.89 1493.04 152.098 1490.24 150.514L1490.29 150.461ZM1505.39 144.759C1507.13 143.808 1508.56 142.383 1509.61 140.482C1510.72 138.581 1511.25 136.311 1511.25 133.565C1511.25 130.82 1510.72 128.549 1509.72 126.702C1508.66 124.854 1507.29 123.428 1505.6 122.478C1503.91 121.527 1502.06 121.052 1500.06 121.052C1498.05 121.052 1496.26 121.527 1494.57 122.478C1492.88 123.428 1491.56 124.854 1490.55 126.702C1489.55 128.549 1489.08 130.873 1489.08 133.565C1489.08 137.578 1490.08 140.693 1492.14 142.858C1494.2 145.023 1496.78 146.131 1499.9 146.131C1501.91 146.131 1503.75 145.656 1505.5 144.706L1505.39 144.759Z" fill="#FF7029"/>
<path d="M1533.11 121.263V141.854C1533.11 143.227 1533.43 144.23 1534.11 144.864C1534.75 145.497 1535.85 145.761 1537.44 145.761H1542.19V152.203H1536.12C1532.63 152.203 1529.99 151.411 1528.15 149.774C1526.3 148.137 1525.4 145.497 1525.4 141.854V121.263H1521.02V114.98H1525.4V105.74H1533.16V114.98H1542.24V121.263H1533.16H1533.11Z" fill="#FF7029"/>
<path d="M1547 108.645C1546.05 107.694 1545.57 106.533 1545.57 105.107C1545.57 103.682 1546.05 102.52 1547 101.57C1547.95 100.619 1549.11 100.144 1550.53 100.144C1551.96 100.144 1553.02 100.619 1553.97 101.57C1554.92 102.52 1555.39 103.682 1555.39 105.107C1555.39 106.533 1554.92 107.694 1553.97 108.645C1553.02 109.595 1551.85 110.07 1550.53 110.07C1549.21 110.07 1547.95 109.595 1547 108.645ZM1554.28 114.981V152.204H1546.57V114.981H1554.28Z" fill="#FF7029"/>
<path d="M1568.96 150.461C1566.11 148.877 1563.9 146.607 1562.26 143.703C1560.62 140.799 1559.83 137.42 1559.83 133.618C1559.83 129.817 1560.68 126.49 1562.31 123.534C1563.95 120.577 1566.27 118.359 1569.12 116.775C1571.97 115.191 1575.25 114.399 1578.79 114.399C1582.32 114.399 1585.54 115.191 1588.45 116.775C1591.35 118.359 1593.62 120.63 1595.26 123.534C1596.95 126.438 1597.74 129.817 1597.74 133.618C1597.74 137.42 1596.9 140.746 1595.15 143.703C1593.41 146.659 1591.09 148.877 1588.18 150.514C1585.23 152.098 1581.95 152.89 1578.42 152.89C1574.88 152.89 1571.71 152.098 1568.91 150.514L1568.96 150.461ZM1584.07 144.759C1585.81 143.808 1587.23 142.383 1588.29 140.482C1589.4 138.581 1589.93 136.311 1589.93 133.565C1589.93 130.82 1589.4 128.549 1588.39 126.702C1587.34 124.854 1585.97 123.428 1584.28 122.478C1582.59 121.527 1580.74 121.052 1578.73 121.052C1576.73 121.052 1574.93 121.527 1573.24 122.478C1571.55 123.428 1570.23 124.854 1569.23 126.702C1568.23 128.549 1567.75 130.873 1567.75 133.565C1567.75 137.578 1568.75 140.693 1570.81 142.858C1572.87 145.023 1575.46 146.131 1578.57 146.131C1580.58 146.131 1582.43 145.656 1584.17 144.706L1584.07 144.759Z" fill="#FF7029"/>
<path d="M1630.15 116.195C1632.48 117.409 1634.27 119.204 1635.59 121.58C1636.91 123.956 1637.54 126.86 1637.54 130.239V152.203H1629.89V131.401C1629.89 128.074 1629.04 125.487 1627.41 123.745C1625.72 121.95 1623.45 121.052 1620.6 121.052C1617.75 121.052 1615.42 121.95 1613.73 123.745C1612.04 125.54 1611.2 128.074 1611.2 131.401V152.203H1603.49V114.98H1611.2V119.257C1612.47 117.726 1614.05 116.511 1616.06 115.667C1618.01 114.822 1620.12 114.399 1622.29 114.399C1625.19 114.399 1627.83 115.033 1630.15 116.247V116.195Z" fill="#FF7029"/>
<path d="M1645.41 151.306C1644.46 150.356 1643.99 149.194 1643.99 147.768C1643.99 146.343 1644.46 145.181 1645.41 144.231C1646.36 143.281 1647.52 142.805 1648.95 142.805C1650.37 142.805 1651.43 143.281 1652.38 144.231C1653.33 145.181 1653.81 146.343 1653.81 147.768C1653.81 149.194 1653.33 150.356 1652.38 151.306C1651.43 152.256 1650.27 152.731 1648.95 152.731C1647.63 152.731 1646.36 152.256 1645.41 151.306Z" fill="#FF7029"/>
</svg>
